<svg width="36" height="38" viewBox="0 0 36 38" fill="none" xmlns="http://www.w3.org/2000/svg">
<g clip-path="url(#clip0_66_458)">
<path d="M12.2345 1.84063C11.8688 2.0336 11.672 2.38984 11.672 2.85742C11.672 3.5625 12.129 4.00781 12.8532 4.00781H13.2188V6.70938C13.2188 9.87109 13.261 10.2125 13.7391 11.2441C14.2735 12.3871 15.1876 13.2926 16.2774 13.7453L16.7696 13.9457L14.9274 13.9531H13.0852L12.4665 13.6266C11.2852 13.0031 10.0759 12.7434 8.98602 12.8844C8.66962 12.9289 8.3954 12.9586 8.3954 12.9586C8.38837 12.9512 8.64852 12.1793 8.97899 11.2293L9.57665 9.51484L9.93524 9.38867C10.7016 9.12148 11.4329 8.44609 11.7774 7.68164C12.6704 5.68516 11.6016 3.36211 9.57665 2.90195C9.02821 2.7832 7.56571 2.79805 7.06649 2.93164C6.15946 3.18399 5.34383 3.84453 4.93602 4.66094C4.81649 4.89102 3.65634 7.7707 2.35555 11.0586C0.0493039 16.8699 -0.0139775 17.048 0.0141475 17.4488C0.0352413 17.7902 0.0914913 17.9387 0.316491 18.2652C2.1868 21.041 4.73212 22.518 8.21258 22.852C8.61337 22.8891 8.95087 22.9336 8.9579 22.9484C8.97196 22.9633 9.48524 24.7371 10.111 26.9043L11.2501 30.8379L11.2641 33.1906C11.2852 35.432 11.2923 35.5508 11.4329 35.7438C11.5102 35.8551 11.6649 36.0184 11.7704 36.1C11.9602 36.2559 12.0095 36.2559 18.0001 36.2559C23.9907 36.2559 24.0399 36.2559 24.2298 36.1C24.3352 36.0184 24.4899 35.8551 24.5673 35.7438C24.7079 35.5508 24.7149 35.432 24.736 33.1906L24.7501 30.8379L25.8891 26.9043C26.5149 24.7371 27.0352 22.9633 27.0423 22.9484C27.0493 22.9336 27.4009 22.8891 27.8227 22.852C30.5157 22.5922 32.7868 21.5531 34.4462 19.8164C34.9665 19.2672 35.6977 18.3098 35.9016 17.9016C36.1548 17.3895 36.1477 17.382 33.6376 11.0438C32.3368 7.76328 31.1907 4.9207 31.0993 4.72031C30.7056 3.90391 29.8337 3.18399 28.9337 2.93164C28.4345 2.79805 26.972 2.7832 26.4235 2.90195C24.6376 3.31016 23.5477 5.19531 24.0188 7.08789C24.279 8.14922 25.0806 9.04727 26.0649 9.38867L26.4235 9.51484L27.0212 11.2293C27.3516 12.1793 27.6118 12.9512 27.6048 12.9586C27.6048 12.9586 27.3306 12.9289 27.0141 12.8844C25.9243 12.7434 24.7149 13.0031 23.5337 13.6266L22.9149 13.9531H21.0727L19.2306 13.9457L19.5962 13.8121C21.1641 13.2109 22.3454 11.7785 22.6688 10.0789C22.8235 9.28477 22.8235 6.53125 22.6759 5.72969C22.3876 4.19336 21.3962 2.88711 20.004 2.18203C19.1462 1.74414 18.7665 1.70703 15.4477 1.70703C12.7618 1.70703 12.4595 1.72187 12.2345 1.84063ZM19.0548 4.275C19.6313 4.56445 20.0673 5.02461 20.3485 5.64062L20.5665 6.12305V7.9043V9.68555L20.3626 10.1457C20.1165 10.7172 19.5681 11.2887 19.0056 11.5633C18.6681 11.7266 18.4993 11.7563 18.0352 11.7563C17.086 11.7563 16.3407 11.3258 15.8345 10.4871C15.4337 9.82656 15.3985 9.52969 15.3985 6.62031V4.00039L17.0016 4.02266L18.5977 4.04492L19.0548 4.275ZM9.35165 5.26211C9.84383 5.53672 10.0407 6.12305 9.80868 6.63516C9.6329 7.02109 9.35165 7.20664 8.81727 7.27344C8.32508 7.34023 8.08602 7.46641 7.90321 7.75586C7.67821 8.12695 5.40008 14.7992 5.39305 15.1109C5.39305 15.4672 5.56883 15.8309 5.85712 16.0609C6.00477 16.1797 6.15946 16.2168 6.45477 16.2168C6.7993 16.2168 6.91883 16.1723 7.34071 15.9051C8.21962 15.3336 9.0493 15.0887 9.84383 15.1703C10.547 15.2371 11.0532 15.4301 12.0165 15.9941L12.4735 16.2539L18.0634 16.2391L23.6602 16.2168L24.1102 15.9348C25.7415 14.9105 27.0845 14.8957 28.6524 15.8977C29.4399 16.3949 30.0446 16.343 30.4243 15.7418C30.7337 15.252 30.6915 15.0813 29.3977 11.3555C28.7438 9.47774 28.1602 7.85977 28.097 7.75586C27.9141 7.46641 27.6751 7.34023 27.1759 7.27344C26.4024 7.16953 25.9946 6.67227 26.1141 5.98945C26.2266 5.35859 26.6345 5.12109 27.5907 5.12109C28.5259 5.12109 28.9056 5.29922 29.1798 5.86328C29.3556 6.21953 33.6798 17.1371 33.6798 17.2188C33.6798 17.2559 33.4337 17.5527 33.1384 17.8941C31.5634 19.6531 29.7493 20.425 26.7329 20.618C25.7204 20.6848 25.5376 20.759 25.2985 21.1969C25.2352 21.3156 24.5954 23.4383 23.8782 25.9246L22.5704 30.4297V32.2109V33.9922H18.0001H13.4298V32.2109V30.4297L12.122 25.9246C11.4048 23.4383 10.7649 21.3156 10.7016 21.1969C10.4556 20.7516 10.2868 20.6848 9.19696 20.618C6.32118 20.4473 4.4579 19.6605 2.91805 17.9461C2.58758 17.5824 2.3204 17.2559 2.3204 17.2188C2.3204 17.0852 6.81337 5.83359 6.93993 5.64805C7.01727 5.54414 7.21415 5.38086 7.3829 5.28438C7.80477 5.06172 8.97196 5.04688 9.35165 5.26211Z" fill="#9C3E75"/>
<path d="M15.047 25.1453C14.4986 25.4348 14.3017 26.2586 14.6462 26.8004C14.9697 27.3125 14.9837 27.3125 18.0001 27.3125C20.44 27.3125 20.7283 27.2977 20.9533 27.1789C21.7126 26.7781 21.7126 25.5461 20.9533 25.1453C20.7283 25.0266 20.44 25.0117 18.0001 25.0117C15.5603 25.0117 15.272 25.0266 15.047 25.1453Z" fill="#9C3E75"/>
<path d="M16.1299 29.5688C15.5041 29.8582 15.3213 30.7637 15.7642 31.3574C16.0385 31.7285 16.2353 31.7656 18.0142 31.7656C19.8494 31.7656 19.9971 31.7285 20.2994 31.2535C20.6439 30.7117 20.4471 29.8879 19.8986 29.5984C19.6877 29.4797 19.4346 29.4648 18.0002 29.4648C16.7767 29.4723 16.2916 29.4945 16.1299 29.5688Z" fill="#9C3E75"/>
</g>
<defs>
<clipPath id="clip0_66_458">
<rect width="36" height="38" fill="white"/>
</clipPath>
</defs>
</svg>
