<svg width="36" height="37" viewBox="0 0 36 37" fill="none" xmlns="http://www.w3.org/2000/svg">
<path d="M5.09766 0.137302C4.85859 0.281834 4.68984 0.520313 4.61953 0.794922C4.59141 0.896091 4.70391 3.47598 4.85859 6.54004C5.11875 11.5336 5.13984 12.3502 5.10469 14.4531C5.07656 16.5127 5.02734 17.2932 4.80938 19.3455C4.76016 19.7791 4.75313 19.8008 4.57031 19.8008C4.26797 19.8008 3.78984 20.1043 3.64922 20.3789C3.52969 20.6102 3.51562 20.827 3.51562 23.0383C3.51562 25.6398 3.52969 25.7193 3.90234 26.0518L4.07109 26.1963L4.00078 28.5088C3.88828 32.1437 4.02188 35.8654 4.275 36.4219C4.33828 36.5592 4.5 36.7471 4.63359 36.8338L4.87266 37H17.9789H31.0852L31.3664 36.7254C31.7109 36.4002 31.7461 36.1979 31.8586 34.1816C31.9359 32.8447 31.9008 26.5865 31.8164 26.3625C31.7953 26.3119 31.8656 26.2107 31.9711 26.1385C32.0836 26.059 32.2313 25.9145 32.3086 25.8133C32.4422 25.6254 32.4492 25.4881 32.4703 23.1395C32.4844 20.9643 32.4773 20.6318 32.3719 20.415C32.2383 20.126 31.9008 19.8803 31.5422 19.8225C31.2609 19.7791 31.268 19.8008 31.1203 18.6084C30.7406 15.5227 30.7406 13.3113 31.1344 6.65566C31.2961 3.93848 31.4297 1.48867 31.4297 1.19961C31.4297 0.628712 31.3172 0.375782 30.9656 0.137302C30.7688 0.00722504 30.382 0 18.0352 0C5.76562 0 5.30156 0.00722504 5.09766 0.137302ZM29.1797 2.51484C29.1797 2.70273 29.0672 4.77676 28.9336 7.11816C28.8 9.4668 28.6734 11.9527 28.6453 12.6465C28.582 14.4387 28.7508 17.4883 29.0109 19.3238C29.0672 19.7141 29.1023 20.0465 29.0953 20.0537C29.0602 20.0826 27.0211 20.2994 25.6641 20.4078C21.0938 20.798 15.3352 20.8125 10.7227 20.4439C9.79453 20.3717 6.93281 20.0898 6.91875 20.0682C6.91172 20.0609 6.93281 19.873 6.96797 19.6562C7.14375 18.4783 7.25625 16.6428 7.29141 14.4893C7.31953 12.4514 7.29844 11.483 7.10859 7.80469C6.98906 5.4416 6.86953 3.20137 6.84844 2.83281L6.80625 2.16797H17.993H29.1797V2.51484ZM7.59375 22.4023C11.5453 22.8143 13.8797 22.9371 18 22.9371C21.382 22.9371 23.0133 22.8721 25.7695 22.648C27.1125 22.5396 29.5523 22.2939 30.0445 22.2145L30.3047 22.1711V23.1828V24.1873L29.8688 24.2307C29.6227 24.2523 28.6523 24.3535 27.7031 24.4547C23.7516 24.8738 19.5469 25.0328 15.6727 24.9316C12.4453 24.8377 10.3148 24.6932 6.82031 24.3029L5.69531 24.1801V23.1756V22.1711L5.9625 22.2145C6.10313 22.2361 6.84141 22.3229 7.59375 22.4023ZM11.0039 26.9551C15.3914 27.273 21.1781 27.2586 25.3477 26.9189C26.0086 26.8684 26.55 26.8322 26.5641 26.8467C26.6063 26.8828 20.7703 30.4961 20.3625 30.6768C19.575 31.0309 18.8438 31.1682 17.8242 31.132C16.3336 31.0814 16.1156 30.9803 12.4945 28.74C10.8211 27.7139 9.44297 26.8539 9.42188 26.8322C9.40078 26.8105 9.52734 26.8178 9.70313 26.8395C9.87891 26.8611 10.4625 26.9117 11.0039 26.9551ZM10.3148 30.0336C12.5859 31.4428 14.6109 32.6424 14.9344 32.7797C15.2438 32.9098 15.8133 33.0977 16.1859 33.1844L16.875 33.3506V34.0877V34.832H11.5664H6.26484L6.22969 34.5936C6.11016 33.8059 6.12422 27.5332 6.24375 27.5332C6.25781 27.5332 8.09297 28.6605 10.3148 30.0336ZM29.7352 30.9369C29.7352 31.992 29.7211 33.3 29.693 33.842L29.6508 34.832H24.3492H19.0547V34.0805V33.3361L19.4555 33.2855C20.0109 33.2205 21.2344 32.7869 21.832 32.4473C22.1063 32.2955 23.9695 31.1465 25.9805 29.8891L29.6367 27.6055L29.6789 28.3064C29.707 28.6967 29.7281 29.8818 29.7352 30.9369Z" fill="#9C3E75"/>
<path d="M17.1211 5.85354C15.8273 6.05589 14.7656 6.62678 13.7602 7.66741L13.0711 8.38284H12.6562C12.3187 8.38284 12.2062 8.41175 12.0234 8.57073C11.7352 8.82366 11.6016 9.1055 11.6016 9.46682C11.6016 9.80647 11.6719 9.95823 12.1922 10.7965C12.7687 11.7071 13.0148 11.7793 14.3227 11.4397C14.8781 11.3024 15.1242 11.194 15.3 11.035C15.7219 10.6592 15.7711 9.96546 15.4125 9.52464L15.2297 9.30061L15.5602 8.98987C16.0102 8.57796 16.643 8.25999 17.332 8.11546C18.4008 7.89143 19.4977 8.21663 20.4469 9.03323C20.925 9.43792 21.2344 9.55354 21.6211 9.46682C22.3453 9.30061 22.6758 8.62854 22.3734 7.93479C22.0852 7.2555 20.6508 6.30882 19.4484 5.99807C18.7875 5.82464 17.7187 5.7596 17.1211 5.85354Z" fill="#9C3E75"/>
<path d="M17.5781 11.259C17.1422 11.4686 16.9453 11.7865 16.9453 12.2779C16.9453 12.9572 17.3461 13.3836 18 13.3836C18.6609 13.3836 19.0547 12.9645 19.0547 12.2563C19.0547 11.8805 19.0336 11.8227 18.7805 11.5481C18.5344 11.2734 18.4781 11.2445 18.0984 11.2229C17.8734 11.2156 17.6344 11.2301 17.5781 11.259Z" fill="#9C3E75"/>
<path d="M21.6209 13.1523C20.8123 13.3764 20.5311 13.5859 20.3905 14.0773C20.285 14.4387 20.3694 14.8289 20.6084 15.0963L20.7561 15.2625L20.4959 15.5443C20.1444 15.9057 19.4131 16.2959 18.8014 16.4476C17.585 16.7439 16.0522 16.2308 15.2788 15.2769C14.9553 14.8867 14.5897 14.7133 14.1748 14.7566C13.4225 14.8433 13.0006 15.6527 13.3311 16.3754C13.4788 16.6861 14.2522 17.4449 14.8358 17.8351C15.9608 18.5939 17.5498 18.9336 18.9139 18.7168C20.3131 18.4855 21.7545 17.6473 22.5702 16.5922C22.8866 16.1875 22.8866 16.1875 23.1819 16.2308C23.6038 16.2959 24.0397 16.0646 24.2506 15.6744C24.4967 15.2264 24.4334 14.8217 24.0186 14.1351C23.2381 12.8488 23.0202 12.7621 21.6209 13.1523Z" fill="#9C3E75"/>
</svg>
