<svg width="36" height="36" viewBox="0 0 36 36" fill="none" xmlns="http://www.w3.org/2000/svg">
<g clip-path="url(#clip0_66_463)">
<path d="M9.94907 3.30466C8.30376 3.48044 6.74282 4.06403 5.41392 4.99919C4.6897 5.50544 3.55767 6.6656 3.07954 7.38278C1.95454 9.09138 1.47642 10.6875 1.47642 12.7547C1.47642 14.2312 1.72251 15.3633 2.35532 16.8187C2.40454 16.9383 2.33423 16.9453 1.5397 16.9453C0.583447 16.9453 0.400635 17.0086 0.133447 17.4093C-0.0493652 17.6836 -0.0493652 18.3164 0.133447 18.5906C0.42876 19.0336 0.506104 19.0547 2.24985 19.0547H3.83188L10.617 25.8328C18.0842 33.2929 17.6131 32.8711 18.3022 32.6953C18.5694 32.625 19.3006 31.9148 25.3827 25.8328L32.1678 19.0547H33.7499C35.1842 19.0547 35.353 19.0406 35.5358 18.9211C35.8592 18.7031 35.9999 18.4359 35.9999 18C35.9999 17.564 35.8592 17.2968 35.5358 17.0789C35.36 16.9664 35.1983 16.9453 34.46 16.9453C33.6655 16.9453 33.5952 16.9383 33.6444 16.8187C34.2772 15.3633 34.5233 14.2312 34.5233 12.7547C34.5233 11.5101 34.4108 10.7508 34.0663 9.72419C33.5881 8.28982 32.885 7.14372 31.8163 6.07497C30.9725 5.22419 30.3186 4.7531 29.285 4.24685C27.9069 3.56482 26.6975 3.28357 25.1014 3.28357C23.5053 3.28357 22.2959 3.56482 20.9178 4.24685C19.9827 4.70388 19.3428 5.14685 18.5764 5.87107L17.9999 6.41247L17.4233 5.87107C16.0663 4.59138 14.4983 3.78279 12.7264 3.44529C11.9038 3.28357 10.6944 3.22732 9.94907 3.30466ZM11.6717 5.48435C13.5561 5.71638 14.7866 6.36325 16.4952 8.02263C17.5569 9.05622 17.7045 9.1406 18.26 9.03513C18.4709 8.99997 18.703 8.81013 19.4694 8.05778C19.9967 7.55153 20.6366 6.982 20.8897 6.79919C24.56 4.19763 29.6295 5.48435 31.6053 9.52732C32.203 10.7367 32.3084 11.2429 32.3014 12.7617C32.3014 13.9359 32.2874 14.0765 32.1116 14.6601C31.8866 15.3914 31.535 16.1718 31.2186 16.6289L31.0006 16.9453L28.2866 16.9312L25.5725 16.9101L24.335 14.9554C23.5475 13.7109 23.0202 12.9515 22.8866 12.8672C22.5983 12.6773 22.0006 12.6773 21.6983 12.8672C21.5225 12.9726 21.0936 13.6687 19.7225 16.0593C18.7522 17.7468 17.9436 19.125 17.9225 19.125C17.8944 19.125 17.4584 18.2953 16.9452 17.2758C13.8584 11.1586 13.3522 10.2023 13.1131 10.0547C12.8038 9.86481 12.2272 9.86481 11.9108 10.0617C11.6225 10.2375 11.6155 10.2515 10.0475 14.0062L8.82407 16.9453H6.91157H4.99907L4.7811 16.6289C4.4647 16.1718 4.11313 15.3914 3.88813 14.6601C3.71235 14.0765 3.69829 13.9359 3.69829 12.7617C3.69126 11.2429 3.79673 10.7367 4.39438 9.52732C5.30845 7.66403 6.93267 6.29294 8.90142 5.73044C9.93501 5.44216 10.7155 5.37185 11.6717 5.48435ZM13.4366 15.2015C13.8655 16.0664 14.8499 18.014 15.6233 19.5258C17.1913 22.6054 17.1631 22.5703 17.8592 22.5703C18.5272 22.5703 18.492 22.6195 20.4959 19.132C21.4944 17.3883 22.3311 15.982 22.3592 15.9961C22.3874 16.0172 22.8092 16.657 23.2944 17.4164C23.885 18.3515 24.2436 18.8508 24.3842 18.9281C24.5741 19.0406 24.8272 19.0547 26.8381 19.0547H29.0741L23.5334 24.5883L17.9999 30.1289L12.4663 24.5883L6.92563 19.0547H8.43735C9.78735 19.0547 9.97017 19.0406 10.1459 18.9211C10.2514 18.8508 10.385 18.7312 10.4413 18.6539C10.4905 18.5836 10.9545 17.5218 11.4678 16.3054C11.9741 15.0961 12.4381 13.9922 12.4944 13.8656C12.5436 13.7461 12.5999 13.6406 12.6209 13.6406C12.642 13.6406 13.0077 14.3437 13.4366 15.2015Z" fill="#9C3E75"/>
</g>
<defs>
<clipPath id="clip0_66_463">
<rect width="36" height="36" fill="white"/>
</clipPath>
</defs>
</svg>
