<svg width="36" height="37" viewBox="0 0 36 37" fill="none" xmlns="http://www.w3.org/2000/svg">
<g clip-path="url(#clip0_66_441)">
<path d="M2.57329 0.137293C2.18657 0.404675 2.10923 0.614246 2.10923 1.42362V2.16796H1.39204C0.59751 2.16796 0.393604 2.24745 0.133447 2.64491C-0.0493652 2.92675 -0.0493652 3.57714 0.133447 3.85897C0.393604 4.25643 0.59751 4.33593 1.39204 4.33593H2.10923V5.07303C2.10923 5.88964 2.18657 6.09921 2.57329 6.36659C2.84751 6.55448 3.45923 6.55448 3.75454 6.36659C4.12017 6.12811 4.22563 5.8535 4.26782 5.05136L4.31001 4.33593H4.98501C5.73032 4.33593 5.94126 4.24921 6.19438 3.85897C6.3772 3.57714 6.3772 2.92675 6.19438 2.64491C5.94126 2.25468 5.73032 2.16796 4.98501 2.16796H4.31001L4.26782 1.4453C4.22563 0.643152 4.1061 0.35409 3.74048 0.122839C3.4522 -0.0505977 2.84048 -0.0433712 2.57329 0.137293Z" fill="#9C3E75"/>
<path d="M16.207 0.101173C12.5578 0.722656 9.44297 3.09297 7.74141 6.54004C7.19297 7.66739 6.89062 8.54902 6.59531 9.90039C6.44766 10.5725 6.44062 10.7314 6.41953 18.3627L6.39141 26.1457L5.81484 26.3336C4.97812 26.601 4.41562 26.9695 3.69141 27.7139C3.18516 28.2342 2.99531 28.4871 2.75625 28.9785C2.20781 30.1059 2.17969 30.3443 2.17969 33.524C2.17969 36.1328 2.18672 36.3279 2.31328 36.523C2.38359 36.6314 2.53828 36.7904 2.64375 36.8627C2.84062 36.9928 3.27656 37 18 37C32.7234 37 33.1594 36.9928 33.3562 36.8627C33.4617 36.7904 33.6164 36.6314 33.6867 36.523C33.8133 36.3279 33.8203 36.1328 33.8203 33.524C33.8203 30.3443 33.7922 30.1059 33.2437 28.9785C33.0047 28.4871 32.8148 28.2342 32.3086 27.7139C31.5844 26.9695 31.0219 26.601 30.1852 26.3336L29.6086 26.1457L29.5805 18.1459L29.5594 10.1533L29.3695 9.3584C29.0812 8.16602 28.9266 7.71797 28.4414 6.68457C26.8594 3.33867 23.9625 1.00449 20.3836 0.209572C19.5328 0.0144539 17.0719 -0.0433578 16.207 0.101173ZM19.807 2.38477C21.593 2.75332 23.2031 3.62774 24.532 4.9502C25.6711 6.08477 26.4656 7.37832 26.9578 8.88867C27.45 10.3918 27.4219 9.64024 27.4219 22.8793V34.832H26.4023H25.3828V26.4637C25.3828 18.3916 25.3758 18.0953 25.2492 17.893C25.0383 17.5605 24.757 17.416 24.3422 17.416C23.8922 17.416 23.6039 17.5678 23.393 17.9219L23.2383 18.1748L23.2172 26.3553C23.2102 30.8574 23.175 34.543 23.1469 34.543C23.0344 34.543 22.3523 34.0227 22.0781 33.7264C21.6633 33.2855 21.3188 32.5268 21.2344 31.8691C21.1992 31.5512 21.1641 27.6055 21.1641 22.2939C21.1641 12.0756 21.1992 12.8127 20.5875 11.5625C20.3484 11.0639 20.1586 10.8182 19.6172 10.2617C19.0758 9.69805 18.8367 9.51016 18.3516 9.26445C17.2547 8.70078 17.0227 8.67188 13.9641 8.67188C11.4609 8.67188 11.2711 8.6791 11.0813 8.80918C10.9758 8.88145 10.8211 9.04043 10.7508 9.14883C10.6242 9.35117 10.6172 9.58242 10.6172 14.3158C10.6172 19.9381 10.6102 19.8152 11.1937 21.0293C11.4328 21.5207 11.6227 21.7736 12.1289 22.2939C12.825 23.0094 13.4086 23.3996 14.1539 23.6453C14.4141 23.732 14.625 23.8332 14.625 23.8621C14.625 24.0355 14.2383 24.6715 13.9219 25.0328C13.4508 25.5604 12.7617 25.9145 12.0234 26.0156C11.5734 26.0734 8.59219 26.124 8.57109 26.0662C8.57109 26.059 8.55 23.125 8.53594 19.5406C8.50078 12.9066 8.53594 11.3963 8.75391 10.2979C9.16172 8.25996 10.1531 6.40274 11.6227 4.93575C12.9164 3.64941 14.2945 2.85449 15.9539 2.44258C17.0086 2.18965 18.7172 2.16074 19.807 2.38477ZM16.2352 10.9121C17.6836 11.1072 18.7945 12.249 18.9844 13.7377C19.0195 14.0268 19.0547 14.9807 19.0547 15.8551V17.4377L18.3937 17.4016C17.4234 17.351 17.0859 17.0908 16.9805 16.2959C16.882 15.5877 16.5234 15.248 15.8906 15.248C15.4477 15.248 15.1242 15.4287 14.9414 15.7756C14.7375 16.173 14.8148 17.098 15.1172 17.7412C15.4266 18.4061 15.982 18.977 16.6289 19.3021C17.1 19.5334 17.1562 19.5479 18.0914 19.5695L19.0547 19.5984V25.965C19.0547 31.5873 19.0688 32.3822 19.1672 32.8014C19.2937 33.3145 19.6594 34.2033 19.8914 34.5357C19.9758 34.6514 20.0391 34.767 20.0391 34.7887C20.0391 34.8104 17.9227 34.832 15.3281 34.832H10.6172V32.9676C10.6172 30.9225 10.6031 30.8719 10.1531 30.5611C9.87891 30.3732 9.24609 30.3732 8.97187 30.5611C8.52187 30.8719 8.50781 30.9225 8.50781 32.9676V34.832H6.42656H4.35234L4.37344 32.758L4.39453 30.6768L4.61953 30.1854C4.91484 29.5422 5.53359 28.9062 6.13828 28.6172C6.77109 28.3064 7.29844 28.2631 10.0266 28.2559C12.7688 28.2559 13.057 28.2125 14.1328 27.6633C14.618 27.4176 14.857 27.2297 15.3984 26.666C15.9469 26.1096 16.1297 25.8639 16.3687 25.3652C16.7414 24.592 16.9453 23.7754 16.9453 23.0311C16.9453 22.0844 16.6922 21.817 15.6516 21.6869C14.8148 21.5857 14.2594 21.3111 13.7039 20.7475C13.1836 20.2127 12.8953 19.5984 12.7969 18.8541C12.7617 18.565 12.7266 16.6355 12.7266 14.576V10.8398H14.2242C15.0398 10.8398 15.9539 10.876 16.2352 10.9121ZM30.8109 29.3326C31.0078 29.5566 31.268 29.9469 31.3875 30.207L31.6055 30.6768L31.6266 32.7508L31.6477 34.832H30.6281H29.6016V31.6451V28.4654L30.0305 28.6967C30.2695 28.8268 30.607 29.1086 30.8109 29.3326Z" fill="#9C3E75"/>
<path d="M32.2453 0.137292C31.8727 0.390222 31.7742 0.650378 31.732 1.4453L31.6898 2.16796H31.0148C30.4734 2.16796 30.2977 2.19686 30.1359 2.30526C29.8125 2.52928 29.6719 2.80389 29.6719 3.25194C29.6719 3.69999 29.8125 3.9746 30.1359 4.19862C30.2977 4.30702 30.4734 4.33593 31.0148 4.33593H31.6898L31.732 5.05136C31.7742 5.8535 31.8797 6.12811 32.2453 6.36659C32.5406 6.55448 33.1523 6.55448 33.4266 6.36659C33.8133 6.09921 33.8906 5.88964 33.8906 5.07303V4.33593H34.6148C35.4023 4.33593 35.6062 4.25643 35.8664 3.85897C36.0492 3.57714 36.0492 2.92675 35.8664 2.64491C35.6062 2.24745 35.4023 2.16796 34.6148 2.16796H33.8906V1.42362C33.8906 0.614245 33.8133 0.404675 33.4266 0.137292C33.1453 -0.0505981 32.5195 -0.0505981 32.2453 0.137292Z" fill="#9C3E75"/>
<path d="M2.64375 10.9771C2.32031 11.2012 2.17969 11.4758 2.17969 11.9238C2.17969 12.6104 2.56641 13.0078 3.23438 13.0078C3.90234 13.0078 4.28906 12.6104 4.28906 11.9238C4.28906 11.2373 3.90234 10.8398 3.23438 10.8398C2.97422 10.8398 2.78438 10.8832 2.64375 10.9771Z" fill="#9C3E75"/>
<path d="M32.175 10.9771C31.8516 11.2012 31.7109 11.4758 31.7109 11.9238C31.7109 12.3719 31.8516 12.6465 32.175 12.8705C32.4492 13.0584 33.082 13.0584 33.3562 12.8705C33.6797 12.6465 33.8203 12.3719 33.8203 11.9238C33.8203 11.6564 33.7781 11.4613 33.6867 11.3168C33.4688 10.9844 33.2016 10.8398 32.7656 10.8398C32.5055 10.8398 32.3156 10.8832 32.175 10.9771Z" fill="#9C3E75"/>
</g>
<defs>
<clipPath id="clip0_66_441">
<rect width="36" height="37" fill="white"/>
</clipPath>
</defs>
</svg>
