<svg width="36" height="38" viewBox="0 0 36 38" fill="none" xmlns="http://www.w3.org/2000/svg">
<path d="M16.1367 0.111328C14.4422 0.400784 12.8039 1.09844 11.2852 2.17461C10.357 2.83516 8.88047 4.42344 8.23359 5.44024C7.15078 7.17695 6.44766 9.21797 6.28594 11.1477L6.23672 11.7117L5.94844 11.8527C5.52656 12.0531 4.69687 12.9438 4.44375 13.4707C4.10625 14.1832 4.00781 14.6434 4.00781 15.4672C4.00781 16.0461 4.05 16.3281 4.16953 16.7066C4.48594 17.6863 5.0625 18.4508 5.87109 18.9629C6.55312 19.3934 7.05234 19.5195 8.05078 19.5195H8.91563L9.18281 20.0168C9.32344 20.2988 9.56953 20.7145 9.72422 20.952C9.87891 21.182 9.99141 21.3898 9.97734 21.3973C9.96328 21.4121 9.74531 21.516 9.49219 21.6348C8.30391 22.1766 7.36875 22.8668 6.32812 23.9727C5.44219 24.9004 4.85156 25.7613 4.33125 26.8449L4.00781 27.5352V32.4113C4.00781 37.0723 4.01484 37.3023 4.14141 37.5102C4.21172 37.6215 4.36641 37.7848 4.47187 37.859C4.66875 37.9926 5.0625 38 18 38C30.9375 38 31.3312 37.9926 31.5281 37.859C31.6336 37.7848 31.7883 37.6215 31.8586 37.5102C31.9852 37.3023 31.9922 37.0723 31.9922 32.4113V27.5352L31.6687 26.8449C31.1484 25.7613 30.5578 24.9004 29.6719 23.9727C28.6312 22.8668 27.5625 22.0801 26.4375 21.5902C26.2266 21.5012 26.0367 21.4121 26.0227 21.4047C26.0156 21.3898 26.1773 21.1078 26.3883 20.7664C26.5992 20.425 26.8383 20.0094 26.9227 19.8387L27.0703 19.5195H27.9422C28.9477 19.5195 29.4469 19.3934 30.1289 18.9629C30.9375 18.4508 31.5141 17.6863 31.8305 16.7066C32.0273 16.0906 32.0555 14.9328 31.8797 14.3168C31.5984 13.3223 30.9586 12.4242 30.1781 11.9492L29.7562 11.6895L29.7141 11.1328C29.5523 9.21055 28.8492 7.16953 27.7664 5.44024C27.0633 4.33438 25.6359 2.82774 24.5812 2.08555C23.2945 1.18008 21.8953 0.564064 20.3766 0.207813C19.4977 0.0074234 17.0789 -0.044529 16.1367 0.111328ZM19.582 2.41953C23.5688 3.08008 26.8594 6.59805 27.4781 10.8656L27.5414 11.3035L26.9367 11.259C24.8344 11.1105 22.493 10.0492 20.918 8.52031C20.2148 7.8375 20.1375 7.79297 19.6875 7.79297C19.3148 7.79297 19.2445 7.83008 17.6484 8.83945C15.75 10.0418 15.1805 10.3609 14.3438 10.6727C13.0008 11.1699 11.6789 11.3555 9.50625 11.3555H8.4375L8.46562 11.1848C8.48672 11.0957 8.53594 10.784 8.58516 10.502C9.10547 7.25859 11.5102 4.20078 14.5055 2.97617C16.1648 2.30078 17.782 2.12266 19.582 2.41953ZM20.0953 10.8285C21.6562 12.0828 23.4492 12.9586 25.1859 13.3223L25.7977 13.4559L25.8469 13.8566C25.9383 14.6582 25.8328 16.2316 25.6359 16.9887C24.9258 19.6828 22.9711 21.8723 20.5031 22.748C18.893 23.3195 17.1141 23.3121 15.4828 22.7406C12.818 21.8055 10.7648 19.3043 10.2234 16.3355C10.125 15.7863 10.0828 13.9383 10.1602 13.7156C10.1953 13.6191 10.4203 13.5969 11.3766 13.5598C13.8727 13.4855 15.6234 12.8621 18.3516 11.1031C18.9492 10.7172 19.4625 10.398 19.4977 10.398C19.5258 10.3906 19.793 10.5836 20.0953 10.8285ZM8.07891 16.8105C8.19844 17.3004 8.19844 17.3004 7.79062 17.2484C6.81328 17.1148 6.1875 16.4098 6.1875 15.4375C6.1875 14.5172 6.78516 13.7898 7.62891 13.6637L7.91016 13.6191L7.95937 15.0664C7.98047 15.8605 8.03672 16.6473 8.07891 16.8105ZM28.9336 13.8566C29.5031 14.1684 29.8125 14.7324 29.8125 15.4598C29.8125 16.0906 29.5172 16.6324 28.9898 16.9664C28.6734 17.1668 27.9492 17.3523 27.8648 17.2633C27.8508 17.2484 27.8859 16.9441 27.9492 16.5879C28.0125 16.1871 28.0547 15.482 28.0547 14.7695V13.6043L28.357 13.6562C28.5187 13.6859 28.7789 13.775 28.9336 13.8566ZM12.3609 23.6684C13.1836 24.2547 13.8516 24.5961 14.8289 24.9375C16.0734 25.3754 16.8539 25.4867 18.3375 25.4348C19.0828 25.4125 19.7789 25.3457 20.0742 25.2715C21.382 24.9598 22.5844 24.418 23.632 23.6758L24.2719 23.2156L24.9187 23.4531C26.0648 23.8688 27.0773 24.5293 27.9984 25.4422C28.4766 25.9172 29.2219 26.8969 29.4258 27.3125L29.5242 27.5129L28.2445 28.4184L26.9648 29.3164L26.9297 28.6633C26.8945 27.9656 26.8102 27.7727 26.4586 27.5277C26.1914 27.3348 25.5586 27.3422 25.2844 27.5277C25.1789 27.602 25.0242 27.7652 24.9539 27.8766C24.8273 28.077 24.8203 28.2922 24.8203 31.9289V35.7734H18H11.1797V31.9289C11.1797 28.2922 11.1727 28.077 11.0461 27.8766C10.9758 27.7652 10.8211 27.602 10.7156 27.5277C10.4414 27.3422 9.80859 27.3348 9.54141 27.5277C9.18984 27.7727 9.10547 27.9656 9.07031 28.6633L9.03516 29.3164L7.75547 28.4184L6.46875 27.5129L6.62344 27.2457C7.33359 25.984 8.55 24.7742 9.85781 24.0098C10.2586 23.7797 11.5172 23.2453 11.693 23.2305C11.7211 23.2305 12.0164 23.4234 12.3609 23.6684ZM7.79766 31.209L9.07031 32.0996V33.9328V35.7734H7.59375H6.11719V32.9086V30.0438L6.32109 30.1848C6.43359 30.259 7.09453 30.7191 7.79766 31.209ZM29.8828 32.916V35.7734H28.4062H26.9297V33.9328L26.9367 32.0996L28.3922 31.0828C29.1937 30.5188 29.8547 30.0586 29.8687 30.0586C29.8758 30.0586 29.8828 31.3426 29.8828 32.916Z" fill="#9C3E75"/>
<path d="M15.7219 18.0277C15.3984 18.2504 15.2578 18.5472 15.2578 18.9851C15.2578 19.4898 15.4055 19.757 15.8273 20.0465C16.5656 20.5437 17.6695 20.7886 18.5273 20.6476C19.4977 20.4844 20.3695 20.0539 20.6227 19.6086C20.7914 19.3043 20.7844 18.6586 20.6086 18.3765C20.257 17.8199 19.6312 17.7234 18.9 18.1242C18.5344 18.332 18.3867 18.3691 18 18.3691C17.6133 18.3691 17.4656 18.332 17.1 18.1242C16.5727 17.8422 16.0523 17.7976 15.7219 18.0277Z" fill="#9C3E75"/>
</svg>
