<svg width="36" height="36" viewBox="0 0 36 36" fill="none" xmlns="http://www.w3.org/2000/svg">
<g clip-path="url(#clip0_66_438)">
<path d="M12.4453 3.09372C11.5102 3.33982 10.807 3.74763 10.0898 4.46482C9.35156 5.19607 9 5.75857 8.73984 6.61638L8.55 7.21404L7.95234 7.40388C7.09453 7.66404 6.53203 8.0156 5.80078 8.75388C4.71094 9.84373 4.28906 10.9195 4.28906 12.6281V13.5633L3.99375 13.6406C2.09531 14.1258 0.583594 15.6656 0.1125 17.5922C-0.0492187 18.2601 -0.0492187 20.6929 0.1125 21.3609C0.5625 23.2101 1.96172 24.6937 3.76875 25.2422L4.275 25.3898L4.30312 26.4937C4.33125 27.45 4.35938 27.675 4.52109 28.1601C4.78828 28.9758 5.16094 29.5594 5.83594 30.2344C6.53203 30.9304 7.11562 31.2961 7.95234 31.5492L8.55 31.739L8.73984 32.3367C8.99297 33.1734 9.35859 33.757 10.0547 34.4531C11.1094 35.5078 12.0727 35.9297 13.5773 35.9859C14.3156 36.007 14.5617 35.9929 15.0539 35.8664C15.9609 35.6414 16.7203 35.2265 17.4094 34.5726L18 34.0172L18.5906 34.5726C19.2797 35.2265 20.0391 35.6414 20.9461 35.8664C21.4383 35.9929 21.6844 36.007 22.4227 35.9859C23.9273 35.9297 24.8906 35.5078 25.9453 34.4531C26.6414 33.757 27.007 33.1734 27.2602 32.3367L27.45 31.739L28.0477 31.5492C28.8844 31.2961 29.468 30.9304 30.1641 30.2344C30.8391 29.5594 31.2117 28.9758 31.4789 28.1601C31.6406 27.675 31.6687 27.45 31.6969 26.4937L31.725 25.3898L32.2313 25.2422C34.0383 24.6937 35.4375 23.2101 35.8875 21.3609C36.0492 20.6929 36.0492 18.2601 35.8875 17.5922C35.4164 15.6656 33.9047 14.1258 32.0203 13.6406L31.725 13.5703L31.6969 12.4594C31.6687 11.5031 31.6406 11.2781 31.4789 10.7929C31.2117 9.97732 30.8391 9.39372 30.1641 8.71873C29.468 8.02263 28.8844 7.65701 28.0477 7.40388L27.45 7.21404L27.2602 6.61638C27.007 5.77966 26.6414 5.19607 25.9453 4.49998C25.2703 3.82497 24.6937 3.45935 23.8711 3.1781C23.3508 3.00935 23.2242 2.99529 22.1836 2.99529C21.143 2.99529 21.0164 3.00935 20.5383 3.18513C19.7437 3.47341 19.1531 3.83904 18.5555 4.4156L18 4.93591L17.4164 4.38044C16.7344 3.73357 15.968 3.3117 15.0891 3.09372C14.3438 2.90388 13.1766 2.91091 12.4453 3.09372ZM15.068 5.39294C16.0734 5.87107 16.7414 6.80622 16.882 7.95232C16.9242 8.33201 16.9453 11.2148 16.9312 15.9961L16.9102 23.4492L16.7484 23.857C16.5445 24.3492 15.9961 24.9328 15.525 25.1648C15.3422 25.2492 14.9625 25.3547 14.6812 25.3898C14.0625 25.4672 13.7531 25.6148 13.5703 25.9101C13.3805 26.2125 13.3805 26.8172 13.5633 27.0984C13.8023 27.457 14.0414 27.5625 14.625 27.5625C15.3914 27.5625 16.0312 27.3867 16.8961 26.9437C16.9664 26.9086 16.9523 30.4594 16.875 31.0711C16.7344 32.1469 16.0453 33.0961 15.068 33.5601C14.618 33.7711 14.5477 33.7851 13.7812 33.7851C13.0148 33.7851 12.9445 33.7711 12.4945 33.5601C11.8687 33.2648 11.25 32.6461 10.9688 32.0414C10.6875 31.4508 10.6242 30.8742 10.6172 29.039C10.6172 27.3726 10.5961 27.2883 10.1531 26.9929C9.87891 26.8101 9.24609 26.8101 8.97188 26.9929C8.55703 27.2672 8.50781 27.4289 8.50781 28.4976V29.4679L8.07891 29.2429C7.55859 28.9617 7.00312 28.3711 6.73594 27.8015C6.48281 27.2601 6.40547 26.6344 6.39844 25.1859C6.39844 24.2156 6.37734 23.9976 6.27187 23.8219C6.08203 23.4984 5.79375 23.3648 5.09766 23.2804C3.91641 23.1398 2.99531 22.507 2.48906 21.4804C1.98281 20.4609 1.98281 18.4922 2.48906 17.4726C2.99531 16.4461 3.91641 15.8133 5.09766 15.6726C5.79375 15.5883 6.08203 15.4547 6.27891 15.1312C6.37734 14.9554 6.39844 14.7375 6.39844 13.7672C6.39844 13.1414 6.43359 12.382 6.46875 12.1008C6.60234 11.0883 7.22109 10.1672 8.08594 9.71013L8.50781 9.48513V10.4554C8.50781 11.5242 8.55703 11.6859 8.97188 11.9601C9.24609 12.1429 9.87891 12.1429 10.1531 11.9601C10.5961 11.6648 10.6172 11.5804 10.6172 9.91404C10.6242 8.07888 10.6875 7.50232 10.9688 6.91169C11.2078 6.39138 11.8336 5.72341 12.3047 5.48435C12.8742 5.18904 13.1484 5.13279 13.8867 5.15388C14.5125 5.16794 14.6461 5.19607 15.068 5.39294ZM23.5055 5.39294C24.1312 5.68826 24.75 6.30701 25.0312 6.91169C25.3125 7.50232 25.3758 8.07888 25.3828 9.91404C25.3828 11.5804 25.4039 11.6648 25.8469 11.9601C26.1211 12.1429 26.7539 12.1429 27.0281 11.9601C27.443 11.6859 27.4922 11.5242 27.4922 10.4554V9.48513L27.9211 9.71013C28.4414 9.99138 28.9969 10.582 29.2641 11.1515C29.5172 11.6929 29.5945 12.3187 29.6016 13.7672C29.6016 14.7375 29.6227 14.9554 29.7281 15.1312C29.918 15.4547 30.2062 15.5883 30.9023 15.6726C32.0836 15.8133 33.0047 16.4461 33.5109 17.4726C34.0172 18.4922 34.0172 20.4609 33.5109 21.4804C33.0047 22.507 32.0836 23.1398 30.9023 23.2804C30.2062 23.3648 29.918 23.4984 29.7281 23.8219C29.6227 23.9976 29.6016 24.2156 29.6016 25.1859C29.5945 26.6344 29.5172 27.2601 29.2641 27.8015C28.9969 28.3711 28.4414 28.9617 27.9211 29.2429L27.4922 29.4679V28.4976C27.4922 27.4289 27.443 27.2672 27.0281 26.9929C26.7539 26.8101 26.1211 26.8101 25.8469 26.9929C25.4039 27.2883 25.3828 27.3726 25.3828 29.039C25.3758 30.8742 25.3125 31.4508 25.0312 32.0414C24.75 32.6461 24.1312 33.2648 23.5055 33.5601C23.0555 33.7711 22.9852 33.7851 22.2188 33.7851C21.4523 33.7851 21.382 33.7711 20.932 33.5601C19.9266 33.082 19.2586 32.1469 19.118 31.0008C19.0758 30.6211 19.0547 27.7383 19.0688 22.957L19.0898 15.5039L19.2516 15.1031C19.5961 14.2453 20.3484 13.6898 21.3117 13.5633C21.9375 13.4859 22.2469 13.3383 22.4297 13.0429C22.6195 12.7406 22.6195 12.1359 22.4367 11.8547C22.1977 11.4961 21.9586 11.3906 21.375 11.3906C20.6086 11.3906 19.9688 11.5664 19.1109 12.0093C19.0336 12.0445 19.0477 8.49372 19.125 7.88201C19.2234 7.15779 19.5117 6.56013 20.025 6.05388C20.7211 5.35076 21.2977 5.12576 22.3242 5.15388C22.95 5.16794 23.0836 5.19607 23.5055 5.39294Z" fill="#9C3E75"/>
</g>
<defs>
<clipPath id="clip0_66_438">
<rect width="36" height="36" fill="white"/>
</clipPath>
</defs>
</svg>
