<svg width="241" height="85" viewBox="0 0 241 85" fill="none" xmlns="http://www.w3.org/2000/svg">
<g clip-path="url(#clip0_114_44)">
<path fill-rule="evenodd" clip-rule="evenodd" d="M44.1746 10.9902C56.9925 11.9287 67.7086 20.513 71.8886 32.251C71.0121 31.6507 70.0272 31.1886 68.9527 30.8933C67.7746 30.5693 66.5871 30.4788 65.4325 30.5884C62.1197 24.2573 56.3846 19.4221 49.4761 17.3403L49.7353 15.9398L47.101 15.1966C46.3942 14.9966 45.7344 15.0918 45.0794 15.3348C44.971 15.3729 44.8626 15.4158 44.7589 15.4587L44.5375 14.1391C44.5846 13.3483 44.5092 12.4908 44.316 11.5524C44.2736 11.357 44.2264 11.1713 44.1746 10.9902ZM49.0237 74.639C46.7146 75.1773 44.3113 75.4584 41.8419 75.4584C25.1645 75.4584 11.4748 62.5343 10.0422 46.0516C11.8 46.5566 13.7415 46.7662 15.3909 46.6852C17.0874 59.9237 28.2842 70.1515 41.8419 70.1515C43.6704 70.1515 45.4611 69.9657 47.1859 69.6085C47.299 71.4425 47.954 73.1908 49.0237 74.639Z" fill="white"/>
<path fill-rule="evenodd" clip-rule="evenodd" d="M25.2399 9.57518C24.8959 12.2572 24.9666 13.9626 25.8526 16.2492C26.2296 17.2163 28.0486 20.8367 27.5255 21.8086C26.2248 22.5326 24.5943 20.1317 24.2598 19.4362C23.0062 16.8161 23.9346 13.5577 22.2381 10.2516C21.748 9.29412 20.3107 7.55058 19.5944 7.16948L19.0006 11.6998C17.9969 10.7518 17.4361 6.06905 11.833 5.91184C9.83491 5.85468 7.68131 5.92137 5.74449 5.54503C3.38355 5.08771 1.89912 4.03015 0.852956 3.81102C1.44673 5.29255 2.54944 6.55972 3.16206 8.39377C5.03762 14.0007 3.11965 18.6645 7.80855 20.67C8.45416 20.9463 9.91502 21.2607 10.4004 21.5799L5.85759 21.9181C5.9754 22.385 6.72468 22.9471 7.15823 23.2758C11.1261 26.2865 15.7538 24.5144 18.7603 25.8244C19.9479 26.3389 21.1637 27.3107 21.1542 28.7541C20.0044 28.9828 20.1929 29.0876 18.8781 28.7017C12.0356 26.7057 11.6398 26.1769 4.40615 29.0066C3.12907 29.6545 1.11214 30.2928 0 31.1503C0.122524 32.0793 3.49665 37.8815 7.20535 38.8533C8.77932 39.2678 10.1931 38.9153 11.7482 38.9581C11.423 41.0733 10.0705 41.5544 8.46829 42.0689C10.0658 43.2503 13.4588 43.8886 15.8669 43.6171C19.2834 43.2265 21.781 41.5973 23.567 38.7009C22.4502 36.0856 23.3691 33.1368 25.3813 31.3313C23.6471 32.6842 21.3852 34.1515 17.224 35.0614C15.1082 35.5235 11.8613 35.7855 9.7548 35.4663C14.9385 35.1424 19.2504 34.1181 23.3267 31.2789C24.1325 30.7168 26.3332 29.0733 26.6443 28.1634C26.0458 27.8157 21.9271 23.7236 21.3946 23.1996C17.6246 19.4695 13.8122 15.7824 10.0375 12.0428C14.4673 15.7729 14.8254 16.0301 19.7122 20.2222C20.8998 21.2369 27.0825 26.6867 27.8318 27.0392C28.9816 24.5191 30.254 23.7903 31.3049 19.0456C32.417 14.0293 31.5311 12.4144 31.4887 8.65101C32.4641 10.1897 32.6338 16.7685 32.3228 19.017C31.6442 23.8665 29.811 25.5338 28.9487 28.0015L29.1466 28.0062C30.7771 24.7145 34.9806 23.0186 38.3029 25.167C38.5385 25.3195 38.7553 25.4767 38.9626 25.6434C41.8514 23.9523 45.7674 21.0606 46.3188 18.0928C46.234 18.069 43.218 19.3695 42.431 19.5124L42.0304 17.1258L39.203 20.5128L38.9815 19.0265C37.9589 19.903 36.9787 22.404 35.909 22.747C34.8251 21.9419 35.3152 20.2032 36.1917 19.4028C36.6158 19.0122 38.6328 17.7117 39.0852 17.5307C41.1634 16.0825 41.9692 14.8439 41.4131 12.1667C41.1162 10.7233 39.6271 8.31279 39.5705 8.02696C39.5564 7.96503 39.5093 7.96503 39.4763 7.93645C39.1841 9.72286 38.1003 11.3378 36.6959 11.4997C36.6677 9.60377 36.9033 8.28897 36.2435 6.60735C35.4896 4.74472 33.8638 3.57283 32.3275 2.42952L29.4293 0.733621C29.9948 1.06709 28.1004 0 28.1004 0C26.8752 3.4585 25.9421 5.94995 25.2399 9.57518Z" fill="white"/>
<path fill-rule="evenodd" clip-rule="evenodd" d="M50.8191 61.7289C51.3233 62.1243 51.9124 62.4291 52.5674 62.6102C55.2064 63.3342 57.9255 61.7622 58.6418 59.0945C58.736 58.742 58.7926 58.3895 58.8114 58.0369C59.3628 58.418 59.9895 58.7134 60.6681 58.8992C61.0781 59.0087 61.4881 59.0802 61.8934 59.104C61.0451 59.6947 60.3948 60.5808 60.1026 61.6622C59.834 62.6578 59.9141 63.6677 60.2676 64.5538C59.6172 63.9821 58.8303 63.5439 57.9443 63.3009C54.8058 62.4387 51.5731 64.3108 50.7201 67.4835C49.8672 70.6562 51.7192 73.9241 54.8577 74.7864C57.539 75.52 60.2864 74.2623 61.5635 71.9043C61.1535 74.834 62.9537 77.678 65.8518 78.4735C68.9903 79.3358 72.2231 77.4636 73.076 74.2909C73.929 71.1183 72.077 67.8503 68.9385 66.9881C68.1798 66.7785 67.4117 66.7308 66.6765 66.8213C67.685 66.2449 68.4767 65.2731 68.8065 64.0488C69.4616 61.6193 68.0384 59.1135 65.6351 58.4514C65.4984 58.4133 65.357 58.3847 65.2204 58.3561C66.6529 57.5748 67.7745 56.2219 68.2363 54.5117C68.3871 53.9449 68.4578 53.3732 68.4531 52.8158C69.0846 54.4308 70.4041 55.7503 72.1571 56.3077C70.7151 57.0413 69.5747 58.3656 69.1223 60.0663C68.2693 63.239 70.1213 66.5069 73.2598 67.3692C76.3983 68.2314 79.6311 66.3592 80.484 63.1866C81.3134 60.0949 79.5745 56.9079 76.5774 55.9504C78.0194 55.2168 79.1598 53.8925 79.6169 52.1918C79.9986 50.7674 79.8384 49.3288 79.2588 48.0902C81.7328 47.9663 83.9618 46.2561 84.6451 43.7027C85.4981 40.5301 83.6461 37.2621 80.5076 36.3999C77.3691 35.5376 74.1363 37.4098 73.2834 40.5825C72.9017 42.0068 73.0619 43.4455 73.6415 44.6841C71.1628 44.8079 68.9385 46.5181 68.2552 49.0667C68.1138 49.5908 68.0478 50.1195 68.0478 50.6388C67.3645 48.8476 65.8801 47.3994 63.9103 46.8564C62.5201 46.4753 61.1158 46.6039 59.8858 47.1327C61.964 50.9818 59.3251 55.8027 55.1404 56.5983C54.6786 59.023 52.935 60.9238 50.8191 61.7289ZM59.5277 46.5848C59.5654 46.4657 59.6031 46.3466 59.6361 46.2275C60.1497 44.322 59.6832 42.3832 58.5569 40.954C57.2422 42.2355 55.5834 42.8453 53.7973 43.1835C56.0593 43.6122 58.114 44.4745 59.5277 46.5848ZM69.2966 69.8511C68.6416 69.5081 67.9065 69.4795 67.2561 69.7034C67.6473 69.7606 68.0337 69.8844 68.406 70.075C69.6972 70.7467 70.4276 72.0805 70.3994 73.4525L70.4229 73.4049C71.0874 72.1091 70.5784 70.518 69.2966 69.8511ZM55.3713 78.2687C54.9943 79.0118 54.9566 79.8407 55.2064 80.5743C55.2723 80.1361 55.4043 79.6978 55.6164 79.2786C56.3562 77.8209 57.8312 76.9967 59.3486 77.0253L59.2968 76.9967C57.8642 76.2488 56.1065 76.8205 55.3713 78.2687ZM53.0481 66.9881C52.6004 67.8741 52.558 68.8555 52.8549 69.7272C52.9303 69.2032 53.0905 68.684 53.345 68.1838C54.2262 66.4498 55.9792 65.4684 57.7841 65.5018L57.7181 65.4684C56.0169 64.5871 53.9246 65.2683 53.0481 66.9881ZM68.4861 37.3622C67.7462 36.9811 66.9263 36.9429 66.2005 37.1954C66.6388 37.2621 67.0724 37.3955 67.4871 37.6146C68.9338 38.3673 69.7537 39.8631 69.7255 41.4018L69.7537 41.3494C70.4889 39.8917 69.9234 38.1053 68.4861 37.3622ZM75.8328 47.7615C75.1731 47.4185 74.4426 47.3899 73.7923 47.6138C74.1835 47.671 74.5699 47.7948 74.9422 47.9854C76.2334 48.6571 76.9638 49.9909 76.9355 51.3629L76.9591 51.3153C77.6188 50.0147 77.1146 48.4236 75.8328 47.7615ZM80.861 39.2772C80.2013 38.9342 79.4708 38.9056 78.8205 39.1295C79.2117 39.1867 79.5981 39.3105 79.9704 39.5011C81.2616 40.1728 81.992 41.5066 81.9637 42.8786L81.9873 42.831C82.6517 41.5305 82.1428 39.9394 80.861 39.2772ZM77.2701 58.1322C76.6151 57.7892 75.8799 57.7606 75.2296 57.9845C75.6208 58.0417 76.0072 58.1656 76.3795 58.3561C77.6707 59.0278 78.4011 60.3617 78.3728 61.7336L78.3964 61.686C79.0561 60.3902 78.5519 58.7991 77.2701 58.1322ZM64.2779 49.8671C63.5898 49.5098 62.8217 49.4764 62.1431 49.7099C62.5531 49.7718 62.9584 49.9004 63.3448 50.1005C64.6926 50.8008 65.4607 52.2013 65.4324 53.6352L65.4607 53.5828C66.1487 52.2299 65.6209 50.5626 64.2779 49.8671ZM53.4062 78.6831C52.6899 81.3508 54.245 84.0995 56.884 84.8236C59.523 85.5477 62.2421 83.9757 62.9584 81.308C63.6747 78.6402 62.1196 75.8915 59.4806 75.1675C56.8416 74.4434 54.1225 76.0154 53.4062 78.6831ZM61.7096 66.4831C62.162 66.8309 62.6851 67.1024 63.2647 67.2596C63.7642 67.3977 64.2684 67.4454 64.7585 67.4073C63.7029 67.9408 62.8076 68.7888 62.2232 69.8701C62.3929 68.684 62.195 67.5121 61.7096 66.4831ZM68.0761 34.1514C65.0177 33.313 61.8792 34.785 60.4796 37.5194C60.3665 38.0815 60.1733 38.6341 59.8906 39.1724C59.146 42.6214 61.2006 46.0989 64.6124 47.0326C68.1327 47.9997 71.7613 45.8988 72.7179 42.3403C73.6745 38.7865 71.5963 35.1184 68.0761 34.1514Z" fill="white"/>
<path fill-rule="evenodd" clip-rule="evenodd" d="M39.0428 34.1705L39.5847 40.2062C37.1484 37.7433 34.7073 35.2757 32.271 32.8128C30.2493 30.0498 33.3642 26.1578 36.5829 27.8728C38.5244 29.1256 38.8024 31.4647 39.0428 34.1705ZM32.926 40.3539L38.8967 40.9017C36.4603 38.4388 34.0193 35.9712 31.5829 33.5083C28.8497 31.4647 24.9996 34.6135 26.6961 37.8672C27.9355 39.8298 30.2493 40.1109 32.926 40.3539Z" fill="white"/>
<path fill-rule="evenodd" clip-rule="evenodd" d="M44.6364 52.1917L44.0945 46.156C46.5308 48.6188 48.9719 51.0865 51.4082 53.5493C53.4299 56.3123 50.3149 60.2043 47.0963 58.4894C45.1548 57.2365 44.8815 54.8975 44.6364 52.1917ZM50.7532 46.0083L44.7825 45.4604C47.2188 47.9233 49.6599 50.391 52.0962 52.8538C54.8295 54.8975 58.6796 51.7486 56.9831 48.495C55.7437 46.5371 53.4299 46.256 50.7532 46.0083Z" fill="white"/>
<path fill-rule="evenodd" clip-rule="evenodd" d="M50.7532 40.3539L44.7825 40.9017C47.2188 38.4388 49.6599 35.9712 52.0962 33.5083C54.8295 31.4647 58.6796 34.6135 56.9831 37.8672C55.7437 39.8298 53.4299 40.1109 50.7532 40.3539ZM44.6364 34.1705L44.0945 40.2062C46.5308 37.7433 48.9719 35.2757 51.4082 32.8128C53.4299 30.0498 50.3149 26.1578 47.0963 27.8728C45.1548 29.1256 44.8815 31.4647 44.6364 34.1705Z" fill="white"/>
<path fill-rule="evenodd" clip-rule="evenodd" d="M32.926 46.0083L38.8967 45.4604C36.4603 47.9233 34.0193 50.391 31.5829 52.8538C28.8497 54.8975 24.9996 51.7486 26.6961 48.495C27.9355 46.5371 30.2493 46.256 32.926 46.0083ZM39.0428 52.1917L39.5847 46.156C37.1484 48.6188 34.7073 51.0865 32.271 53.5493C30.2493 56.3123 33.3642 60.2043 36.5829 58.4894C38.5244 57.2365 38.8024 54.8975 39.0428 52.1917Z" fill="white"/>
<path fill-rule="evenodd" clip-rule="evenodd" d="M95.7477 30.0929C94.4895 29.9261 93.5611 29.5403 92.8496 29.0973C92.1945 28.6018 91.6997 28.1016 91.4829 27.4966C91.318 27.0012 91.2662 26.4486 91.4311 25.9532C91.596 25.4006 91.9212 25.0671 92.416 24.7908C92.8543 24.5717 93.3444 24.4049 93.8392 24.3525C94.3858 24.3525 94.8241 24.3525 95.2623 24.4621C95.7006 24.5193 96.1389 24.6288 96.464 24.7956C96.8457 24.9051 97.1191 25.0195 97.284 25.0719C97.3924 24.7956 97.4489 24.6288 97.5008 24.4621C97.5573 24.2954 97.6091 24.1286 97.6657 24.0191C97.939 23.1902 98.2689 22.3089 98.6506 21.3132C99.0889 20.3748 99.3622 19.6555 99.5271 19.2124C99.579 19.16 99.579 19.1029 99.579 19.0457C99.579 18.9933 99.6355 18.9361 99.6355 18.879C99.6355 18.8266 99.6873 18.8266 99.6873 18.7694C99.9041 18.2168 100.017 17.7166 100.017 17.3307C100.017 16.8877 100.017 16.5542 99.9088 16.2779C99.8523 16.0588 99.6921 15.8349 99.5271 15.6682C99.3622 15.5014 99.1972 15.3919 99.037 15.3347C98.8203 15.1156 98.7637 14.9488 98.8202 14.7821C98.8721 14.6725 98.9852 14.5058 99.0936 14.3962C99.9135 13.6769 100.625 13.2911 101.172 13.2339C101.718 13.2339 102.157 13.2339 102.538 13.4006C102.92 13.6198 103.25 13.9532 103.523 14.3962C104.178 15.2823 104.4 16.2208 104.126 17.326C103.91 18.4312 103.415 19.5935 102.76 20.7511C102.76 20.7511 102.703 20.8083 102.651 20.9703C102.487 21.1942 102.27 21.58 101.888 22.2422C101.558 22.9091 101.233 23.4569 101.012 23.9571C100.521 25.2291 100.14 26.3867 99.8617 27.4395C100.955 26.9964 101.832 26.3867 102.595 25.5578C103.363 24.7289 104.018 23.8428 104.508 22.9615C104.998 22.023 105.38 21.1942 105.653 20.4177C105.927 19.5888 106.092 19.0362 106.143 18.7027C106.252 18.3692 106.417 18.1501 106.634 18.0405C106.85 17.9881 107.124 17.9881 107.402 18.0929C107.732 18.2025 108.005 18.3692 108.273 18.6455C108.603 18.9218 108.877 19.1981 109.093 19.5268C109.367 19.9127 109.527 20.2986 109.584 20.632C109.635 21.0179 109.635 21.3514 109.584 21.6848C109.527 22.0707 109.362 22.4566 109.202 22.79C109.037 23.1235 108.82 23.5617 108.438 24.1143C108.057 24.7241 107.567 25.3291 106.907 25.996C106.252 26.6582 105.484 27.268 104.612 27.9301C103.74 28.5923 102.699 29.0877 101.549 29.4784C102.586 30.5835 103.57 31.7459 104.503 32.7939C105.488 33.8991 106.36 34.7804 107.237 35.4474C108.165 36.1095 109.15 36.5002 110.135 36.605C111.063 36.7717 111.883 36.7717 112.43 36.7717C112.595 36.7717 112.76 36.7717 112.92 36.8813C113.085 36.9384 113.085 37.1052 113.028 37.3767C112.92 37.7626 112.698 38.1532 112.425 38.6486C112.204 39.144 111.878 39.6442 111.497 40.0873C111.059 40.5303 110.62 40.9162 110.13 41.1925C108.688 41.9213 107.006 41.3544 105.922 40.254C105.102 39.4823 104.39 38.5438 103.627 37.4386C102.915 36.3334 102.204 35.1711 101.549 33.8991C100.837 32.632 100.239 31.4124 99.579 30.3644C99.5271 30.2548 99.4706 30.1453 99.414 30.0357V30.0929C99.1407 31.7507 98.9239 33.075 98.759 34.1802C98.5941 35.2854 98.5941 36.0571 98.759 36.5573V36.6669C98.8155 36.7193 98.8155 36.8336 98.8155 37.0004C98.8155 37.1671 98.759 37.2767 98.5941 37.3338C97.1191 38.1055 96.0776 38.439 95.531 38.3866C94.9278 38.3294 94.6026 37.6673 94.4895 36.4525C94.3811 35.8999 94.4895 35.0139 94.7628 33.7991C95.0409 32.6367 95.366 31.3648 95.7477 30.0929ZM96.7892 26.5534C96.0776 26.1675 95.4744 26.0008 95.0409 26.058C94.546 26.1151 94.3811 26.3343 94.4942 26.8345C94.546 27.2203 94.7675 27.4966 95.1492 27.7205C95.4791 27.8301 95.9174 27.9968 96.3509 28.054C96.4593 27.7777 96.5159 27.4442 96.5677 27.2251C96.6808 26.9964 96.7326 26.7773 96.7892 26.5534ZM114.173 29.8737C114.338 29.9833 114.338 30.2024 114.173 30.5359C114.009 30.8694 113.792 31.2028 113.57 31.5315C113.353 31.865 113.189 32.1937 113.024 32.47C112.915 32.7463 112.967 32.913 113.189 33.0226C113.353 33.1322 113.57 32.9702 113.844 32.6367C114.117 32.2509 114.39 31.8078 114.715 31.2552C115.045 30.6455 115.319 30.0405 115.644 29.3211C115.969 28.6018 116.19 27.9397 116.407 27.2203C116.624 26.6106 116.789 26.058 116.789 25.5625C116.845 25.0671 116.789 24.7336 116.624 24.5669C116.351 24.3478 115.912 24.4573 115.314 24.8956C114.711 25.3386 114.112 25.8912 113.509 26.663C112.854 27.4395 112.251 28.3779 111.704 29.3688C111.214 30.3644 110.828 31.3029 110.667 32.2413C110.385 33.3846 110.601 34.8805 110.46 36.1667C110.427 36.4811 110.121 36.543 109.711 36.4478C108.273 36.1286 107.567 35.5236 107.204 35.2902C106.52 34.8567 106.737 34.7376 106.784 34.3946C107.058 33.2322 107.388 32.0746 107.769 30.8551C108.151 29.6975 108.537 28.6447 108.863 27.7062C109.409 26.158 109.904 24.9956 110.338 24.1143C110.771 23.233 111.049 22.79 111.101 22.6757C111.266 22.3994 111.539 22.2898 111.864 22.3994C112.194 22.4566 112.411 22.509 112.519 22.6233C112.576 22.6233 112.684 22.6757 112.793 22.7329C112.849 22.7853 113.014 22.8996 113.174 23.0091C113.339 23.1187 113.504 23.3378 113.721 23.6713C113.886 24.0048 113.886 24.3382 113.669 24.7765C113.613 24.8337 113.613 24.8337 113.669 24.7241C113.721 24.5574 113.721 24.6145 113.669 24.7765C113.886 24.5574 114.159 24.2811 114.489 24.0048C114.871 23.7285 115.201 23.5093 115.634 23.3426C116.016 23.1759 116.398 23.0663 116.893 23.0663C117.331 23.0663 117.769 23.1759 118.259 23.4522C118.641 23.6713 118.914 24.0619 119.027 24.6098C119.136 25.1624 119.192 25.7721 119.192 26.4343C119.136 27.1536 119.027 27.9254 118.867 28.6447C118.702 29.4164 118.485 30.0834 118.32 30.6312C117.991 31.4601 117.552 32.1794 117.062 32.8987C116.572 33.5609 115.969 34.1135 115.201 34.4994C114.927 34.7233 114.602 34.8328 114.272 34.8852C113.943 34.9376 113.613 34.9376 113.288 34.9376C112.906 34.8852 112.576 34.7185 112.194 34.385C111.813 34.1611 111.596 33.8324 111.483 33.4466C111.318 33.0607 111.261 32.6748 111.261 32.2318C111.318 31.846 111.37 31.4601 111.534 31.0695C111.699 30.6836 111.916 30.4073 112.19 30.0738C112.411 29.9071 112.684 29.7404 113.066 29.6308C113.405 29.4831 113.787 29.5403 114.173 29.8737ZM123.245 28.1588V28.216C123.245 28.216 123.245 28.2731 123.193 28.2731V28.3827C123.301 28.3303 123.41 28.2731 123.466 28.216C123.575 28.1064 123.74 27.9921 123.905 27.8825C124.56 27.4966 125.158 27.2727 125.761 27.1108C126.365 27.0012 126.963 27.0012 127.566 27.1632C128.278 27.3871 128.768 27.8825 129.041 28.4923C129.315 28.9877 129.48 29.4879 129.48 30.0405C129.48 30.5931 129.423 31.1457 129.258 31.6411C129.041 32.3033 128.768 32.913 128.33 33.5228C127.891 34.0754 127.345 34.5756 126.69 34.9615C126.473 35.1282 126.143 35.2378 125.761 35.3473C125.488 35.3997 125.158 35.4569 124.725 35.4569C124.343 35.4569 123.961 35.3473 123.575 35.2378C123.245 35.071 122.976 34.7947 122.755 34.5184C122.538 34.2421 122.482 33.9658 122.425 33.6371C122.425 33.3608 122.482 33.0274 122.59 32.7511C122.698 32.4176 122.863 32.1413 123.08 31.9222C123.245 31.7554 123.518 31.5935 123.9 31.4267C124.23 31.26 124.612 31.3172 125.045 31.4791C125.262 31.5887 125.262 31.7554 125.153 32.0317C124.989 32.2509 124.824 32.5272 124.607 32.8082C124.442 33.1417 124.282 33.3608 124.169 33.6371C124.06 33.8563 124.169 34.023 124.39 34.0802C124.72 34.0802 124.989 33.8563 125.318 33.3084C125.648 32.7558 125.865 32.0937 126.082 31.3743C126.303 30.7074 126.464 30.0452 126.464 29.3831C126.515 28.7733 126.407 28.3875 126.134 28.2779C125.809 28.1112 125.37 28.1683 124.819 28.4446C124.272 28.7209 123.726 29.1068 123.179 29.6594C122.797 29.9357 122.467 30.2691 122.194 30.5978C122.138 30.8741 122.086 31.0933 122.029 31.3172C121.921 31.4839 121.921 31.703 121.921 31.9269C121.869 32.1461 121.869 32.4795 121.869 32.9226C121.921 33.3656 122.034 33.8086 122.194 34.3041C122.302 34.5232 122.359 34.7471 122.411 34.8567C122.411 35.0234 122.411 35.133 122.359 35.2425C122.302 35.3521 122.194 35.4093 122.029 35.5188C121.864 35.5188 121.756 35.5712 121.591 35.5712C121.426 35.5712 121.318 35.5712 121.153 35.5712C120.384 35.4617 119.843 35.2378 119.404 34.8519C119.074 34.466 118.801 33.9134 118.641 33.1417C118.532 32.4224 118.697 31.3743 119.188 29.9928C119.461 28.9972 119.626 28.5018 119.678 28.4446C120.224 26.6773 120.714 25.2958 121.209 24.3001C121.756 23.3045 122.029 22.7519 122.081 22.6995C122.246 22.366 122.519 22.2565 122.849 22.366C123.179 22.4184 123.396 22.4756 123.504 22.5852L123.777 22.6947C123.886 22.7519 123.994 22.8615 124.159 22.971C124.324 23.0806 124.489 23.3045 124.706 23.6904C124.871 24.0238 124.871 24.3573 124.649 24.7956C124.484 25.129 124.319 25.5149 124.103 25.9008C123.886 26.3438 123.721 26.8392 123.499 27.3347C123.466 27.6586 123.358 27.8825 123.245 28.1588ZM135.874 22.9663C135.709 22.8567 135.544 22.7471 135.441 22.69L135.219 22.5804C135.111 22.4708 134.838 22.4137 134.508 22.3613C134.178 22.2517 133.961 22.3613 133.796 22.6947C133.744 22.7519 133.414 23.2473 132.924 24.243C132.434 25.2386 131.883 26.5105 131.341 28.2779C130.851 29.7689 130.521 31.0409 130.413 32.0889C130.356 33.1417 130.356 33.8563 130.413 34.3565C130.464 34.466 130.521 34.5804 130.521 34.6899C130.578 34.8567 130.686 34.9662 130.794 35.0758C131.233 35.2949 131.614 35.4617 131.996 35.5712C132.378 35.6236 132.764 35.6808 133.089 35.6808C133.419 35.6236 133.744 35.5712 134.018 35.5141C134.291 35.4045 134.508 35.2902 134.729 35.2378C134.894 35.1806 134.951 35.071 134.894 34.9043L134.729 34.5184C134.291 33.9087 134.074 33.1369 134.074 32.1413C134.074 31.0933 134.239 30.0405 134.564 28.9924L134.894 28.1636C134.951 27.8301 135.116 27.5014 135.224 27.1679C135.446 26.6725 135.606 26.2295 135.827 25.7864C135.992 25.4006 136.209 25.0099 136.374 24.7336C136.591 24.2906 136.591 23.9619 136.374 23.6284C136.204 23.295 136.039 23.0758 135.874 22.9663ZM143.749 33.9611C143.857 34.1802 143.97 34.3469 144.131 34.5137C144.182 34.6232 144.239 34.79 144.239 34.9567C144.296 35.0663 144.239 35.233 144.074 35.2902C143.857 35.3473 143.64 35.4569 143.362 35.5141C143.089 35.6236 142.759 35.6808 142.434 35.6808C142.104 35.6808 141.831 35.6808 141.666 35.6236C141.501 35.5712 141.228 35.4045 140.846 35.1806C140.681 35.071 140.573 34.9615 140.516 34.7947C140.516 34.628 140.464 34.5184 140.464 34.4089C140.408 34.023 140.408 33.3037 140.464 32.3652C140.516 31.4267 140.738 30.3215 141.119 28.94C141.171 28.7209 141.284 28.4446 141.393 28.1111C141.449 27.8349 141.614 27.449 141.774 27.1155C141.883 26.6201 141.609 26.5629 140.954 27.006C140.573 27.2823 140.186 27.6681 139.861 28.0588C139.479 28.4446 139.149 28.8876 138.82 29.3831C138.381 30.1024 138 30.9837 137.783 31.9793C137.726 32.4224 137.674 32.8082 137.674 33.1941C137.618 33.5276 137.618 33.8563 137.618 34.0802C137.618 34.2993 137.566 34.466 137.566 34.5184C137.458 34.7423 137.349 34.8519 137.236 34.9615C137.184 35.0139 137.128 35.0139 137.128 34.9615C136.308 34.7947 135.761 34.5184 135.436 34.0802C135.106 33.6371 135.054 33.1941 135.215 32.8082C135.436 32.3652 135.818 31.4791 136.473 30.1024C137.349 28.6113 137.896 27.6157 138.278 27.1727C138.608 26.7868 138.989 26.2914 139.479 25.7912C139.969 25.291 140.521 24.7384 141.119 24.1906C141.774 23.6904 142.429 23.1949 143.141 22.8091C143.198 22.7567 143.306 22.6995 143.362 22.6995C143.471 22.6995 143.579 22.6471 143.636 22.5899C143.909 22.4804 144.182 22.3708 144.456 22.3708C144.786 22.3184 145.059 22.4232 145.276 22.7043C145.657 23.1473 145.766 23.6427 145.657 24.1429C145.549 24.6384 145.384 25.029 145.224 25.3577C145.115 25.5768 145.059 25.8531 144.951 26.1342C144.842 26.3533 144.734 26.5725 144.677 26.7963C144.899 26.4629 145.224 26.077 145.606 25.6912C146.044 25.1957 146.647 24.6955 147.246 24.1429C147.849 23.6475 148.504 23.2045 149.267 22.7614C149.324 22.7043 149.376 22.6519 149.489 22.6519C149.597 22.6519 149.654 22.5947 149.762 22.5423C149.983 22.4327 150.257 22.3232 150.582 22.3232C150.912 22.266 151.18 22.3756 151.402 22.709C151.732 23.0949 151.892 23.5379 151.784 24.0334C151.675 24.5336 151.51 24.9194 151.345 25.3053C151.237 25.5292 151.129 25.8055 151.015 26.077C150.907 26.3533 150.799 26.6296 150.634 26.9631C150.582 27.2394 150.469 27.5157 150.36 27.9015C150.252 28.235 150.144 28.5113 150.031 28.7828C149.757 29.888 149.592 30.9932 149.54 32.046C149.54 33.0941 149.757 33.8706 150.196 34.4756C150.304 34.5851 150.36 34.7519 150.36 34.9186C150.417 35.0282 150.36 35.1949 150.196 35.252C149.979 35.3044 149.757 35.4188 149.484 35.4712C149.211 35.5807 148.881 35.6379 148.556 35.6379C148.174 35.6379 147.844 35.6379 147.41 35.5855C147.029 35.4759 146.647 35.3092 146.261 35.0901C146.096 34.9805 145.987 34.8662 145.987 34.7042C145.935 34.5375 145.879 34.4279 145.879 34.3183C145.822 33.9325 145.822 33.2132 145.879 32.2747C145.931 31.3362 146.152 30.231 146.534 28.8495C146.642 28.6256 146.699 28.3541 146.807 28.0206C146.916 27.7443 147.024 27.3585 147.189 27.025V26.9726C147.137 26.9154 147.081 26.9154 147.024 26.9726C146.694 27.2489 146.312 27.6348 145.931 28.0206C145.549 28.4065 145.219 28.8495 144.946 29.3497C144.508 30.0691 144.178 30.9504 143.961 31.946C143.904 32.389 143.853 32.7749 143.796 33.1036C143.805 33.4656 143.749 33.7372 143.749 33.9611ZM162.443 28.7114C162.608 28.9305 162.608 29.264 162.387 29.6498C162.17 30.0357 161.788 30.6455 161.35 31.3648C160.86 32.0841 160.257 32.8035 159.545 33.4656C158.833 34.0754 157.962 34.6232 156.977 35.0139C155.992 35.3997 154.847 35.4569 153.588 35.2378C152.604 35.071 151.949 34.5756 151.619 33.7991C151.289 33.0798 151.18 32.1413 151.289 31.1457C151.397 30.15 151.671 29.102 152.109 28.0492C152.599 26.944 153.094 26.058 153.692 25.2862C154.022 24.7908 154.46 24.3478 154.894 23.9619C155.384 23.576 155.822 23.2426 156.369 22.9663C156.859 22.7471 157.354 22.5804 157.9 22.5804C158.39 22.5804 158.942 22.69 159.375 23.0234C159.865 23.3521 160.144 23.8523 160.144 24.5145C160.2 25.1767 160.035 25.8388 159.762 26.501C159.488 27.2203 159.107 27.9397 158.617 28.4923C158.122 29.0973 157.632 29.4879 157.142 29.707C156.652 29.9309 156.27 29.9833 156.048 29.9309C155.832 29.8737 155.667 29.7642 155.558 29.6546L155.506 29.5974C155.398 29.3211 155.342 29.0449 155.506 28.7686C155.615 28.4923 155.78 28.216 156.053 27.9397C156.161 27.8301 156.326 27.6634 156.491 27.3299C156.708 27.0536 156.821 26.7773 156.93 26.4486C157.038 26.1199 157.146 25.8388 157.146 25.5625C157.203 25.2291 157.146 25.0099 157.095 24.8432C156.986 24.6765 156.821 24.7336 156.548 24.8432C156.331 25.0099 156.058 25.2815 155.836 25.6149C155.563 26.0008 155.346 26.4438 155.125 26.9393C154.908 27.4347 154.743 27.9873 154.635 28.4875C154.418 29.5355 154.361 30.312 154.583 30.755C154.748 31.1981 155.073 31.4744 155.62 31.5839C156.331 31.7507 156.986 31.7507 157.641 31.5315C158.244 31.3648 158.843 31.1457 159.39 30.8122C159.936 30.4787 160.431 30.15 160.813 29.8166C161.251 29.4307 161.581 29.0973 161.854 28.821C161.906 28.7638 162.019 28.7114 162.127 28.6542C162.226 28.659 162.335 28.659 162.443 28.7114ZM162.17 27.2203C162.387 26.2247 162.773 25.2862 163.155 24.3478C163.593 23.3521 163.866 22.8567 163.923 22.7471C164.031 22.4708 164.253 22.3613 164.47 22.4708C164.799 22.5232 164.96 22.5804 165.068 22.69L165.29 22.7995C165.398 22.8519 165.506 22.9663 165.619 23.0758C165.728 23.1854 165.893 23.4093 166.058 23.738C166.274 24.0715 166.274 24.4002 166.058 24.8432C165.893 25.1195 165.728 25.5054 165.568 25.8912C165.403 26.3343 165.294 26.7201 165.186 26.9964C164.969 27.4395 164.748 27.9921 164.531 28.5971C164.696 28.4303 165.021 27.9873 165.459 27.3251C165.897 26.7154 166.388 26.1104 166.991 25.5006C167.589 24.8384 168.192 24.2287 168.904 23.7332C169.559 23.1806 170.271 22.9043 170.926 22.7948C171.199 22.7948 171.42 22.7948 171.637 22.7948C171.802 22.8472 172.019 22.9043 172.292 22.9615C172.514 23.0139 172.731 23.1282 172.895 23.295C173.169 23.5141 173.334 23.7904 173.386 24.181C173.437 24.5669 173.386 24.9004 173.334 25.2862C173.225 25.6721 173.112 26.0056 172.952 26.339C172.787 26.7249 172.627 26.9488 172.518 27.1155C172.297 27.449 172.024 27.6681 171.698 27.8349C171.373 28.0016 171.043 28.0587 170.662 28.1111C170.332 28.1111 170.059 28.1111 169.785 28.1111C169.512 28.0587 169.347 28.0588 169.239 28.0588C169.074 28.0588 168.965 28.0016 168.965 27.892C168.913 27.7824 168.913 27.6681 168.965 27.6157C169.182 27.006 169.455 26.3438 169.842 25.5721C169.842 25.5197 169.894 25.4053 169.894 25.2958C169.894 25.0766 169.729 25.0766 169.404 25.1862L169.078 25.4053L169.022 25.4577C168.913 25.5149 168.805 25.5673 168.697 25.6816C168.645 25.7912 168.48 25.9008 168.367 26.0151C168.258 26.1247 168.15 26.2342 168.037 26.3486C167.985 26.4581 167.872 26.5677 167.764 26.682C167.547 27.0155 167.33 27.2918 167.273 27.6205C167.165 27.8968 167.109 28.0635 167.109 28.1731V28.2826C167 28.7781 167 29.2783 167.165 29.6641C167.273 30.05 167.495 30.3835 167.764 30.6598C168.037 30.8789 168.31 31.1028 168.64 31.3219C168.965 31.4887 169.295 31.5982 169.512 31.5982C170.059 31.7078 170.605 31.7078 171.152 31.5982C171.369 31.5982 171.59 31.7078 171.807 31.8174C172.024 31.9841 172.024 32.3128 171.807 32.813C171.482 33.3656 171.043 33.9754 170.497 34.4708C169.95 34.9662 169.295 35.2425 168.584 35.3569H168.419C168.197 35.3569 167.98 35.3569 167.815 35.3569C167.594 35.2997 167.434 35.2473 167.269 35.1901L166.83 35.0234C166.067 34.6375 165.629 33.9754 165.464 32.9797C165.355 31.9841 165.407 30.9361 165.681 29.8309C165.351 30.4406 165.077 31.1552 164.809 31.9317C164.587 32.7082 164.371 33.5895 164.206 34.4756C164.154 34.8614 164.097 35.1949 163.984 35.3616C163.932 35.5807 163.767 35.6379 163.551 35.5807C163.494 35.5807 163.329 35.5283 163.112 35.4712C162.947 35.4188 162.731 35.3044 162.509 35.1949C162.292 35.0281 162.019 34.8614 161.798 34.5899C161.576 34.3136 161.416 33.9801 161.251 33.5371C161.143 33.2036 161.086 32.7654 161.086 32.3223C161.086 31.8841 161.086 31.3839 161.194 30.8837C161.251 30.4454 161.359 29.9452 161.468 29.5022C161.576 29.0591 161.684 28.6733 161.798 28.397C161.845 28.216 161.953 27.8825 162.17 27.2203ZM184.912 23.7904C185.021 24.1239 185.021 24.4526 184.86 24.786C184.695 25.0623 184.531 25.4482 184.314 25.8388C184.097 26.2819 183.932 26.7201 183.767 27.2203C183.602 27.4966 183.494 27.8825 183.385 28.1588C183.277 28.4923 183.169 28.7686 183.112 29.0449C182.787 30.0976 182.622 31.1457 182.622 32.1413C182.622 33.1941 182.839 33.9658 183.277 34.5756C183.329 34.6852 183.385 34.7947 183.442 34.9615C183.494 35.1282 183.442 35.2378 183.277 35.2949C183.056 35.3521 182.839 35.4617 182.514 35.5188C182.24 35.6284 181.91 35.6856 181.585 35.6856C181.26 35.6856 180.874 35.6856 180.492 35.6284C180.11 35.5188 179.672 35.3521 179.29 35.133C179.073 34.9138 178.96 34.6899 178.96 34.4136C178.909 34.1373 178.909 33.7467 178.909 33.3084C178.909 32.813 178.96 32.2032 179.073 31.4839C178.692 32.0937 178.362 32.6987 177.98 33.1989C177.598 33.7515 177.212 34.1945 176.835 34.4708C176.562 34.7471 176.288 34.8567 176.067 34.9138C175.902 35.0234 175.737 35.0806 175.577 35.0806C174.375 35.1901 173.499 34.7471 173.009 33.6991C172.57 32.651 172.627 31.1552 173.173 29.1115C173.173 28.8924 173.225 28.7257 173.338 28.5065C173.338 28.5065 173.338 28.4494 173.39 28.4494C173.39 28.397 173.39 28.3398 173.39 28.3398C173.937 26.5677 174.484 25.3005 174.974 24.3049C175.464 23.3093 175.794 22.8138 175.85 22.7043C176.015 22.428 176.232 22.3184 176.562 22.428C176.892 22.4851 177.108 22.5375 177.217 22.6519C177.438 22.7043 177.655 22.8186 177.872 23.0377C178.037 23.1473 178.202 23.3664 178.367 23.6999C178.583 24.0334 178.583 24.3668 178.367 24.8051C178.202 25.0814 178.037 25.4673 177.82 25.8579C177.655 26.3009 177.438 26.7392 177.273 27.2394C177.217 27.4585 177.108 27.6776 177.052 27.792C177 27.9587 176.943 28.1254 176.887 28.3446L176.835 28.397V28.4494C176.783 28.6161 176.727 28.8352 176.67 29.2211C176.562 29.5546 176.505 29.8833 176.505 30.2167C176.505 30.5502 176.505 30.8265 176.557 31.1028C176.614 31.3791 176.779 31.5458 176.995 31.5458C177.047 31.5458 177.104 31.5458 177.16 31.4887C177.377 31.3791 177.65 31.1552 178.037 30.7122C178.367 30.2739 178.692 29.7737 179.073 29.2211C179.403 28.6113 179.785 28.0063 180.115 27.3394C180.445 26.7297 180.77 26.1247 181.043 25.6292C181.208 25.2434 181.477 24.8003 181.807 24.3001C182.137 23.8047 182.466 23.3045 182.848 22.9186H182.9C182.957 22.8615 183.121 22.7519 183.338 22.6423C183.447 22.5852 183.503 22.5852 183.668 22.6423C183.777 22.6423 183.89 22.6947 183.993 22.7519C184.102 22.8043 184.267 22.9186 184.432 23.0854C184.432 23.1378 184.432 23.1378 184.483 23.1378C184.483 23.1378 184.54 23.1902 184.592 23.1902L184.865 23.6856V23.7428C184.912 23.738 184.912 23.738 184.912 23.7904Z" fill="white"/>
<path fill-rule="evenodd" clip-rule="evenodd" d="M195.68 23.8477C195.789 24.1811 195.789 24.5146 195.628 24.8433C195.463 25.1196 195.298 25.5055 195.082 25.8913C194.86 26.3344 194.7 26.7774 194.535 27.2728C194.37 27.5491 194.262 27.8826 194.153 28.1541C194.045 28.4876 193.932 28.7639 193.88 29.0402C193.55 30.093 193.39 31.1982 193.39 32.189C193.39 33.2371 193.607 34.0136 194.045 34.6186C194.097 34.7281 194.153 34.8377 194.21 35.0044C194.262 35.1712 194.21 35.2283 194.045 35.3379C193.828 35.3903 193.607 35.4475 193.282 35.557C193.008 35.6666 192.678 35.7238 192.353 35.7238C192.028 35.7238 191.642 35.7238 191.26 35.6714C190.878 35.5618 190.44 35.3951 190.058 35.1712C189.837 34.952 189.733 34.7329 189.733 34.4518C189.676 34.1755 189.676 33.7897 189.676 33.3466C189.676 32.8512 189.733 32.2414 189.841 31.5221C189.408 32.1271 189.078 32.7369 188.696 33.2323C188.315 33.7849 187.933 34.2279 187.546 34.5042C187.273 34.7805 187 34.8901 186.783 34.9473C186.618 35.0568 186.453 35.114 186.293 35.114C185.091 35.2236 184.215 34.7281 183.725 33.7325C183.343 32.6845 183.395 31.1934 183.89 29.0926C183.89 28.8735 183.941 28.7067 184.055 28.4876C184.055 28.4876 184.055 28.4304 184.111 28.4304C184.111 28.378 184.111 28.3209 184.111 28.3209C184.658 26.6059 185.204 25.334 185.694 24.3431C186.185 23.3475 186.514 22.852 186.571 22.7425C186.736 22.4662 186.953 22.3566 187.283 22.4662C187.612 22.5186 187.829 22.5757 187.938 22.6853C188.159 22.7425 188.376 22.852 188.593 23.0712C188.758 23.1807 188.922 23.4046 189.087 23.7333C189.304 24.0668 189.304 24.3955 189.087 24.8385C188.922 25.1148 188.758 25.5007 188.593 25.8866C188.376 26.3296 188.159 26.7726 187.994 27.2681C187.938 27.4872 187.829 27.6539 187.773 27.7635C187.721 27.9302 187.664 28.097 187.608 28.3161L187.551 28.3685V28.4209C187.495 28.5876 187.443 28.8068 187.386 29.1402C187.278 29.5261 187.221 29.8596 187.221 30.1883C187.221 30.5217 187.221 30.798 187.273 31.1267C187.325 31.403 187.49 31.5698 187.711 31.5698C187.82 31.5698 187.82 31.5698 187.876 31.5174C188.093 31.4078 188.366 31.1839 188.748 30.6885C189.078 30.2502 189.408 29.75 189.841 29.1402C190.171 28.5876 190.553 27.9779 190.883 27.3729C191.208 26.7631 191.538 26.1581 191.811 25.6579C191.976 25.272 192.249 24.829 192.579 24.3336C192.905 23.8334 193.234 23.338 193.673 22.9521C193.724 22.8949 193.889 22.7854 194.163 22.6758C194.215 22.6234 194.271 22.6234 194.436 22.6758C194.544 22.6758 194.658 22.733 194.766 22.7854C194.931 22.8378 195.039 22.9521 195.199 23.1188C195.199 23.1712 195.199 23.1712 195.256 23.1712C195.256 23.1712 195.308 23.1712 195.364 23.2284L195.638 23.7238V23.7762C195.68 23.7905 195.68 23.7905 195.68 23.8477ZM195.138 20.7512C195.52 20.9704 195.468 21.1943 195.03 21.3038C194.54 21.4134 193.937 21.523 193.225 21.4134C192.462 21.361 191.693 21.1943 190.93 20.8608C190.11 20.5845 189.507 20.1415 189.238 19.5317C189.017 19.0363 188.908 18.5932 188.965 18.3169C188.965 18.0406 189.073 17.7643 189.182 17.5452C189.347 17.3261 189.512 17.1593 189.893 16.9354C190.11 16.8259 190.327 16.7163 190.496 16.7163C190.661 16.7163 190.77 16.7163 190.878 16.7687C190.93 16.7163 191.043 16.7163 191.095 16.8783C191.368 17.8167 191.75 18.5361 192.188 19.0315C192.626 19.5269 193.008 19.9176 193.446 20.1367C193.828 20.3606 194.21 20.4654 194.54 20.5226C194.86 20.5893 195.025 20.6988 195.138 20.7512Z" fill="white"/>
<path fill-rule="evenodd" clip-rule="evenodd" d="M231.82 60.5999V54.5737H230.618V53.3018H234.775V54.5737H233.517V60.5999H231.82ZM235.482 60.5999L235.534 53.3065H236.844L238.21 57.008L239.633 53.3065H240.892L240.943 60.5999H239.577V56.6221L238.484 59.5518H237.993L236.9 56.6221V60.5999H235.482Z" fill="white"/>
<path d="M231.82 60.5999V54.5737H230.618V53.3018H234.775V54.5737H233.517V60.5999H231.82ZM235.482 60.5999L235.534 53.3065H236.844L238.21 57.008L239.633 53.3065H240.892L240.943 60.5999H239.577V56.6221L238.484 59.5518H237.993L236.9 56.6221V60.5999H235.482Z" stroke="white" stroke-width="0.2268" stroke-miterlimit="3.8637"/>
<path fill-rule="evenodd" clip-rule="evenodd" d="M104.221 47.0041V67.4502H100.394V50.4292H92.468V67.4502H88.5896V47.0041H104.221ZM106.356 67.4502L115.484 46.1704L124.725 67.4502H120.677L119.202 63.6916H111.93L110.507 67.4502H106.356ZM113.405 60.3236H117.779L115.484 54.7976L113.405 60.3236ZM133.636 47.0041C134.018 47.0041 134.456 47.0565 134.838 47.0565C135.276 47.1089 135.709 47.2232 136.096 47.3328C136.534 47.4423 136.968 47.6091 137.354 47.8282C137.736 48.0473 138.122 48.3236 138.499 48.7095C138.881 49.043 139.211 49.4288 139.428 49.8719C139.644 50.3101 139.866 50.7008 139.974 51.1438C140.083 51.5821 140.196 51.9727 140.196 52.4157C140.248 52.854 140.248 53.2446 140.248 53.5733C140.248 54.1259 140.196 54.6213 140.083 55.1215C139.974 55.617 139.866 56.06 139.701 56.4459C139.536 56.8317 139.371 57.2176 139.211 57.5511C138.989 57.8845 138.829 58.1037 138.664 58.38C138.334 58.7087 137.901 58.9326 137.519 59.1517C137.081 59.3708 136.699 59.5376 136.261 59.7043C135.823 59.8139 135.441 59.9282 135.059 59.9282C134.677 59.9806 134.291 60.0378 133.966 60.0378H131.016V67.4454H127.133V47.0041H133.636ZM131.011 56.7841H132.868C133.033 56.7841 133.25 56.7841 133.471 56.7317C133.693 56.7317 133.909 56.6745 134.126 56.6221C134.399 56.565 134.616 56.5126 134.838 56.403C135.054 56.2934 135.276 56.1267 135.493 55.9028C135.709 55.6265 135.931 55.2978 136.096 54.9072C136.261 54.5213 136.313 54.0783 136.313 53.5257C136.313 53.0826 136.261 52.5872 136.096 52.1442C135.931 51.7583 135.714 51.4249 135.441 51.1486C135.276 50.9818 135.111 50.8151 134.894 50.7627C134.677 50.6531 134.456 50.5436 134.239 50.4864C133.966 50.434 133.749 50.3768 133.528 50.3768C133.254 50.3768 133.033 50.3768 132.816 50.3768H131.011V56.7841ZM141.124 67.4502L150.252 46.1704L159.489 67.4502H155.441L153.909 63.6916H146.699L145.276 67.4502H141.124ZM148.174 60.3236H152.547L150.252 54.7976L148.174 60.3236ZM177.038 47.0041V64.025H179.224V72.1473H175.836V67.4502H163.372V72.1473H159.983V63.9679C160.257 63.9155 160.53 63.8011 160.747 63.6916C160.964 63.582 161.185 63.4724 161.402 63.3581C161.567 63.2485 161.675 63.139 161.892 63.0246C162 62.9151 162.057 62.8579 162.113 62.8055C162.495 62.3625 162.825 61.867 163.042 61.2573C163.315 60.7047 163.475 60.0949 163.588 59.4328C163.697 58.7658 163.753 58.1037 163.805 57.4415C163.805 56.8317 163.862 56.1696 163.862 55.617V46.9945H177.038V47.0041ZM167.528 55.4598C167.528 55.7932 167.528 56.1791 167.476 56.565C167.476 57.0032 167.42 57.4463 167.42 57.8893C167.368 58.3323 167.311 58.7706 167.255 59.2136C167.203 59.5995 167.146 59.9854 167.09 60.3188C166.981 60.7618 166.76 61.2573 166.435 61.9194C166.11 62.5292 165.615 63.2438 164.96 64.0203H173.216V50.4245H167.528V55.4598ZM190.874 46.561C193.88 46.561 196.283 47.5567 198.145 49.4908C198.583 49.9862 198.965 50.4864 199.347 51.039C199.728 51.5916 200.002 52.1966 200.275 52.9207C200.548 53.5257 200.708 54.245 200.873 54.9643C201.038 55.6837 201.095 56.4554 201.095 57.2319C201.095 57.9512 201.038 58.6134 200.93 59.2756C200.765 59.9949 200.6 60.657 200.383 61.262C200.11 61.9242 199.837 62.5864 199.455 63.1961C199.073 63.8059 198.635 64.3585 198.145 64.9111C197.268 65.8496 196.288 66.5689 195.087 67.1215C193.885 67.6741 192.462 67.9504 190.878 67.9504C190.002 67.9504 189.182 67.8408 188.418 67.6741C187.707 67.5073 186.995 67.2882 186.397 67.0119C185.794 66.6785 185.247 66.4022 184.757 66.0163C184.267 65.6304 183.885 65.2446 183.555 64.9111C182.627 63.9726 181.915 62.8674 181.42 61.5383C180.93 60.2664 180.657 58.8325 180.657 57.3367C180.657 56.6174 180.765 55.9552 180.93 55.2359C181.039 54.5165 181.26 53.7972 181.533 53.135C181.807 52.4157 182.137 51.7536 182.462 51.1486C182.844 50.5388 183.173 49.9862 183.555 49.4908C183.885 49.1573 184.319 48.8286 184.757 48.4951C185.247 48.1617 185.742 47.833 186.397 47.5567C186.995 47.2232 187.65 47.0041 188.418 46.8373C189.125 46.6182 189.941 46.561 190.874 46.561ZM190.817 50.3768C189.941 50.3768 189.121 50.5436 188.357 50.8723C187.594 51.2057 186.939 51.7012 186.392 52.3109C186.171 52.53 185.954 52.8635 185.732 53.1922C185.516 53.4685 185.351 53.8591 185.186 54.245C185.021 54.688 184.856 55.1311 184.747 55.6265C184.639 56.1219 184.639 56.6745 184.639 57.2843C184.639 58.2799 184.804 59.166 185.077 60.0473C185.402 60.8762 185.897 61.5955 186.5 62.2053C187.104 62.8674 187.815 63.3629 188.522 63.6439C189.29 63.9202 189.997 64.087 190.817 64.087C191.251 64.087 191.689 64.0298 192.127 63.9202C192.565 63.8107 192.999 63.6963 193.385 63.4772C193.715 63.3105 194.097 63.1437 194.37 62.9246C194.7 62.6483 194.973 62.4292 195.247 62.2053C195.412 61.9814 195.628 61.7098 195.845 61.3764C196.067 61.1001 196.283 60.7142 196.448 60.3236C196.613 59.8805 196.778 59.4423 196.887 58.9421C196.995 58.3895 197.052 57.8369 197.052 57.2319C197.052 56.7365 197 56.1791 196.887 55.7408C196.778 55.2454 196.67 54.8024 196.505 54.3593C196.34 53.9163 196.123 53.5304 195.902 53.197C195.68 52.8635 195.464 52.5348 195.247 52.2585C194.973 52.0346 194.7 51.7583 194.37 51.5392C194.04 51.3201 193.715 51.0962 193.333 50.9294C192.952 50.7627 192.514 50.6531 192.132 50.5436C191.694 50.4292 191.255 50.3768 190.817 50.3768ZM208.145 56.3982L215.086 47.0041H219.789L212.188 56.6745C212.353 56.8984 212.57 57.17 212.735 57.3939C212.951 57.6702 213.168 57.9465 213.333 58.2228C213.555 58.4419 213.771 58.7182 213.936 58.9945C214.158 59.2136 214.318 59.4899 214.54 59.7138L215.303 60.7666L216.175 61.8146L220.383 67.455H215.407L208.135 57.5082V67.455H204.2V47.0041H208.135V56.3982H208.145ZM221.377 56.8413C221.377 54.1354 222.362 51.6488 224.332 49.5479C226.297 47.4471 228.597 46.3991 231.273 46.3991C231.877 46.3991 232.475 46.4515 233.078 46.5658C233.738 46.7325 234.337 46.8993 234.992 47.1756V51.2629C234.445 50.8246 233.898 50.5436 233.295 50.3816C232.692 50.2149 232.093 50.1053 231.49 50.1053C229.799 50.1053 228.375 50.7151 227.117 51.9298C225.859 53.2017 225.204 54.8024 225.204 56.7412C225.204 59.0088 225.859 60.8285 227.174 62.2672C228.375 63.5963 229.799 64.2585 231.547 64.2013C232.749 64.2013 233.898 63.8678 234.992 63.0961V67.3501C234.332 67.6264 233.677 67.7932 233.022 67.9027C232.367 68.0695 231.712 68.1219 231.057 68.1219C228.38 68.1219 226.08 67.0167 224.167 64.8635C222.306 62.6959 221.377 60.0425 221.377 56.8413Z" fill="white"/>
</g>
<defs>
<clipPath id="clip0_114_44">
<rect width="241" height="85" fill="white"/>
</clipPath>
</defs>
</svg>
