<svg width="261" height="92" viewBox="0 0 261 92" fill="none" xmlns="http://www.w3.org/2000/svg">
<path fill-rule="evenodd" clip-rule="evenodd" d="M47.8407 11.8951C61.7223 12.9108 73.3277 22.2021 77.8546 34.9067C76.9053 34.257 75.8387 33.7569 74.6751 33.4372C73.3992 33.0866 72.1131 32.9886 70.8627 33.1072C67.2749 26.2548 61.0639 21.0213 53.5821 18.7681L53.8628 17.2523L51.0099 16.4479C50.2444 16.2313 49.5299 16.3345 48.8205 16.5974C48.7032 16.6387 48.5858 16.6851 48.4735 16.7315L48.2336 15.3033C48.2847 14.4473 48.203 13.5192 47.9938 12.5035C47.9478 12.2921 47.8968 12.091 47.8407 11.8951ZM53.0922 80.7855C50.5915 81.3681 47.9887 81.6724 45.3144 81.6724C27.253 81.6724 12.4272 67.6839 10.8757 49.8439C12.7794 50.3904 14.882 50.6173 16.6682 50.5296C18.5055 64.8584 30.6315 75.9285 45.3144 75.9285C47.2946 75.9285 49.2339 75.7274 51.1018 75.3407C51.2243 77.3258 51.9337 79.2181 53.0922 80.7855Z" fill="#9C3E75"/>
<path fill-rule="evenodd" clip-rule="evenodd" d="M27.3345 10.3637C26.962 13.2666 27.0385 15.1125 27.998 17.5874C28.4063 18.6341 30.3763 22.5527 29.8098 23.6046C28.4012 24.3883 26.6354 21.7896 26.273 21.0368C24.9155 18.201 25.9209 14.6742 24.0836 11.0959C23.5528 10.0595 21.9962 8.17239 21.2205 7.75991L20.5775 12.6633C19.4904 11.6373 18.8831 6.56885 12.815 6.3987C10.6511 6.33683 8.31877 6.40901 6.22121 6.00168C3.66434 5.5067 2.05673 4.36205 0.92374 4.12487C1.56679 5.72841 2.76101 7.09993 3.42447 9.08502C5.45568 15.1537 3.37854 20.2015 8.45656 22.3722C9.15575 22.6713 10.7378 23.0116 11.2635 23.3571L6.3437 23.7231C6.47129 24.2284 7.28275 24.8369 7.75227 25.1926C12.0495 28.4513 17.0611 26.5332 20.3172 27.9511C21.6033 28.508 22.92 29.5598 22.9098 31.1221C21.6645 31.3696 21.8687 31.4831 20.4448 31.0654C13.0344 28.905 12.6057 28.3327 4.77181 31.3954C3.38875 32.0966 1.20443 32.7875 0 33.7156C0.132692 34.7211 3.78682 41.0012 7.80331 42.053C9.50789 42.5016 11.039 42.1201 12.7231 42.1665C12.371 44.4558 10.9063 44.9765 9.17106 45.5334C10.9012 46.8121 14.5757 47.503 17.1836 47.2091C20.8837 46.7863 23.5885 45.0229 25.5228 41.888C24.3133 39.0573 25.3084 35.8657 27.4877 33.9116C25.6096 35.3759 23.1599 36.964 18.6534 37.9488C16.3619 38.4489 12.8456 38.7325 10.5643 38.387C16.1782 38.0364 20.8479 36.9279 25.2625 33.8549C26.1352 33.2464 28.5186 31.4676 28.8554 30.4828C28.2073 30.1064 23.7468 25.6773 23.1701 25.1101C19.0872 21.0729 14.9585 17.0821 10.8705 13.0346C15.6679 17.0718 16.0557 17.3502 21.3481 21.8876C22.6342 22.9858 29.33 28.8844 30.1415 29.2659C31.3868 26.5384 32.7647 25.7495 33.9028 20.614C35.1072 15.1847 34.1478 13.4368 34.1018 9.36345C35.1583 11.0289 35.342 18.1494 35.0052 20.5831C34.2703 25.832 32.285 27.6366 31.351 30.3075L31.5654 30.3126C33.3312 26.7498 37.8836 24.9142 41.4816 27.2396C41.7367 27.4046 41.9715 27.5747 42.196 27.7552C45.3245 25.9248 49.5656 22.795 50.1627 19.5828C50.0708 19.557 46.8045 20.9646 45.9523 21.1193L45.5185 18.5361L42.4563 22.2021L42.2165 20.5934C41.109 21.5421 40.0475 24.2491 38.889 24.6203C37.7151 23.7489 38.2459 21.867 39.1952 21.0007C39.6545 20.5779 41.8388 19.1703 42.3287 18.9744C44.5794 17.4069 45.4521 16.0664 44.8499 13.1686C44.5284 11.6063 42.9156 8.99737 42.8544 8.688C42.8391 8.62097 42.7881 8.62097 42.7523 8.59004C42.4359 10.5236 41.2621 12.2715 39.7412 12.4468C39.7106 10.3947 39.9658 8.97159 39.2513 7.15149C38.4347 5.13546 36.674 3.86706 35.0103 2.6296L31.8716 0.794037C32.484 1.15496 30.4324 0 30.4324 0C29.1055 3.74332 28.095 6.43995 27.3345 10.3637Z" fill="#72941D"/>
<path fill-rule="evenodd" clip-rule="evenodd" d="M55.0367 66.8125C55.5827 67.2405 56.2207 67.5705 56.9301 67.7664C59.7881 68.5501 62.7328 66.8486 63.5085 63.9612C63.6106 63.5797 63.6718 63.1981 63.6923 62.8166C64.2894 63.2291 64.9681 63.5487 65.7031 63.7498C66.1471 63.8684 66.5911 63.9457 67.03 63.9715C66.1113 64.6109 65.407 65.5699 65.0906 66.7403C64.7997 67.818 64.8865 68.911 65.2692 69.8701C64.565 69.2514 63.7127 68.777 62.7532 68.514C59.3542 67.5808 55.8532 69.6071 54.9295 73.0411C54.0057 76.475 56.0114 80.0121 59.4104 80.9454C62.3143 81.7394 65.2897 80.3782 66.6727 77.8259C66.2287 80.9969 68.1783 84.0751 71.3169 84.9362C74.7159 85.8694 78.2169 83.8431 79.1407 80.4091C80.0644 76.9752 78.0587 73.4381 74.6598 72.5048C73.8381 72.278 73.0062 72.2264 72.2101 72.3244C73.3022 71.7005 74.1596 70.6487 74.5169 69.3235C75.2262 66.6939 73.685 63.9818 71.0822 63.2651C70.9342 63.2239 70.7811 63.193 70.6331 63.162C72.1845 62.3164 73.3992 60.8521 73.8993 59.0011C74.0626 58.3875 74.1392 57.7688 74.1341 57.1655C74.818 58.9134 76.247 60.3416 78.1455 60.9449C76.5838 61.7389 75.3487 63.1723 74.8588 65.0131C73.9351 68.447 75.9408 71.9841 79.3397 72.9173C82.7387 73.8506 86.2397 71.8242 87.1634 68.3903C88.0616 65.044 86.1784 61.5946 82.9326 60.5582C84.4943 59.7642 85.7293 58.3308 86.2244 56.49C86.6378 54.9484 86.4642 53.3912 85.8365 52.0507C88.5159 51.9166 90.9298 50.0656 91.6698 47.3019C92.5936 43.868 90.5879 40.3309 87.1889 39.3976C83.79 38.4644 80.289 40.4907 79.3652 43.9247C78.9518 45.4663 79.1254 47.0235 79.7531 48.3641C77.0686 48.4981 74.6598 50.3492 73.9197 53.1077C73.7666 53.6748 73.6952 54.2472 73.6952 54.8092C72.9552 52.8705 71.3476 51.303 69.2143 50.7152C67.7087 50.3027 66.1879 50.442 64.8559 51.0143C67.1065 55.1804 64.2485 60.3984 59.7166 61.2594C59.2165 63.8839 57.3281 65.9412 55.0367 66.8125ZM64.468 50.4213C64.5088 50.2924 64.5497 50.1635 64.5854 50.0346C65.1417 47.9722 64.6364 45.8737 63.4167 44.3268C61.9928 45.7138 60.1963 46.3738 58.2621 46.7399C60.7118 47.2039 62.9369 48.1372 64.468 50.4213ZM75.0476 75.6037C74.3382 75.2324 73.5421 75.2015 72.8378 75.4438C73.2614 75.5057 73.6799 75.6397 74.0831 75.846C75.4814 76.573 76.2725 78.0167 76.2419 79.5017L76.2674 79.4501C76.987 78.0476 76.4358 76.3255 75.0476 75.6037ZM59.9667 84.7145C59.5584 85.5188 59.5176 86.416 59.7881 87.21C59.8595 86.7356 60.0024 86.2613 60.2321 85.8075C61.0333 84.2298 62.6307 83.3378 64.2741 83.3687L64.2179 83.3378C62.6664 82.5283 60.7628 83.147 59.9667 84.7145ZM57.4506 72.5048C56.9658 73.4639 56.9199 74.526 57.2414 75.4696C57.323 74.9024 57.4966 74.3404 57.7722 73.799C58.7265 71.9222 60.625 70.8601 62.5797 70.8961L62.5082 70.8601C60.6659 69.9062 58.3999 70.6435 57.4506 72.5048ZM74.1698 40.4392C73.3686 40.0267 72.4805 39.9854 71.6946 40.2587C72.1692 40.3309 72.6388 40.4753 73.0879 40.7124C74.6547 41.5271 75.5427 43.1461 75.5121 44.8115L75.5427 44.7548C76.3388 43.177 75.7264 41.2435 74.1698 40.4392ZM82.1262 51.6949C81.4117 51.3237 80.6207 51.2927 79.9164 51.5351C80.34 51.5969 80.7585 51.731 81.1617 51.9372C82.56 52.6642 83.3511 54.1079 83.3205 55.5929L83.346 55.5413C84.0605 54.1337 83.5144 52.4116 82.1262 51.6949ZM87.5717 42.5119C86.8572 42.1407 86.0662 42.1097 85.3619 42.3521C85.7855 42.4139 86.204 42.548 86.6071 42.7542C88.0055 43.4812 88.7966 44.925 88.7659 46.4099L88.7915 46.3583C89.5111 44.9507 88.9599 43.2286 87.5717 42.5119ZM83.6828 62.9197C82.9734 62.5484 82.1773 62.5175 81.473 62.7598C81.8966 62.8217 82.3151 62.9558 82.7182 63.162C84.1166 63.889 84.9077 65.3327 84.877 66.8177L84.9026 66.7661C85.6171 65.3637 85.071 63.6415 83.6828 62.9197ZM69.6124 53.9739C68.8672 53.5872 68.0354 53.5511 67.3005 53.8037C67.7445 53.8708 68.1834 54.01 68.6019 54.2265C70.0615 54.9845 70.8934 56.5004 70.8627 58.0523L70.8933 57.9956C71.6385 56.5313 71.0669 54.7267 69.6124 53.9739ZM57.8385 85.163C57.0628 88.0504 58.7469 91.0255 61.6049 91.8092C64.4629 92.5929 67.4076 90.8914 68.1834 88.004C68.9591 85.1166 67.2749 82.1416 64.417 81.3578C61.559 80.5741 58.6142 82.2756 57.8385 85.163ZM66.8309 71.9583C67.3209 72.3347 67.8874 72.6286 68.5151 72.7987C69.0561 72.9483 69.6022 72.9998 70.1329 72.9586C68.9897 73.5361 68.0201 74.4538 67.3872 75.6243C67.5709 74.3404 67.3566 73.072 66.8309 71.9583ZM73.7258 36.964C70.4136 36.0565 67.0147 37.6497 65.4989 40.6093C65.3764 41.2177 65.1672 41.8158 64.861 42.3985C64.0546 46.1315 66.2797 49.8954 69.9747 50.906C73.7871 51.9527 77.7168 49.6789 78.7528 45.8273C79.7888 41.9808 77.5382 38.0106 73.7258 36.964Z" fill="#9C3E75"/>
<path fill-rule="evenodd" clip-rule="evenodd" d="M42.2829 36.9846L42.8698 43.5173C40.2313 40.8516 37.5876 38.1808 34.9491 35.5151C32.7597 32.5246 36.1331 28.312 39.6189 30.1682C41.7215 31.5243 42.0226 34.0559 42.2829 36.9846ZM35.6585 43.6772L42.1247 44.2701C39.4862 41.6044 36.8425 38.9336 34.204 36.2679C31.2439 34.0559 27.0744 37.4641 28.9116 40.9857C30.2539 43.11 32.7597 43.4142 35.6585 43.6772Z" fill="#B36E33"/>
<path fill-rule="evenodd" clip-rule="evenodd" d="M48.3408 56.49L47.7539 49.9573C50.3924 52.623 53.0361 55.2938 55.6746 57.9595C57.864 60.9501 54.4906 65.1626 51.0049 63.3064C48.9022 61.9503 48.6062 59.4187 48.3408 56.49ZM54.9652 49.7974L48.499 49.2045C51.1376 51.8702 53.7812 54.541 56.4197 57.2067C59.3798 59.4187 63.5494 56.0105 61.7121 52.4889C60.3699 50.3698 57.864 50.0656 54.9652 49.7974Z" fill="#B36E33"/>
<path fill-rule="evenodd" clip-rule="evenodd" d="M54.9652 43.6772L48.499 44.2701C51.1376 41.6044 53.7812 38.9336 56.4197 36.2679C59.3798 34.0559 63.5494 37.4641 61.7121 40.9857C60.3699 43.11 57.864 43.4142 54.9652 43.6772ZM48.3408 36.9846L47.7539 43.5173C50.3924 40.8516 53.0361 38.1808 55.6746 35.5151C57.864 32.5246 54.4906 28.312 51.0049 30.1682C48.9022 31.5243 48.6062 34.0559 48.3408 36.9846Z" fill="#B36E33"/>
<path fill-rule="evenodd" clip-rule="evenodd" d="M35.6585 49.7974L42.1247 49.2045C39.4862 51.8702 36.8425 54.541 34.204 57.2067C31.2439 59.4187 27.0744 56.0105 28.9116 52.4889C30.2539 50.3698 32.7597 50.0656 35.6585 49.7974ZM42.2829 56.49L42.8698 49.9573C40.2313 52.623 37.5876 55.2938 34.9491 57.9595C32.7597 60.9501 36.1331 65.1626 39.6189 63.3064C41.7215 61.9503 42.0226 59.4187 42.2829 56.49Z" fill="#B36E33"/>
<path fill-rule="evenodd" clip-rule="evenodd" d="M103.694 32.571C102.331 32.3905 101.326 31.9729 100.555 31.4934C99.8456 30.9571 99.3097 30.4157 99.075 29.7609C98.8963 29.2247 98.8402 28.6266 99.0188 28.0904C99.1974 27.4922 99.5496 27.1313 100.085 26.8323C100.56 26.5951 101.091 26.4146 101.627 26.3579C102.219 26.3579 102.693 26.3579 103.168 26.4765C103.643 26.5384 104.117 26.657 104.469 26.8374C104.883 26.956 105.179 27.0798 105.357 27.1365C105.475 26.8374 105.536 26.657 105.592 26.4765C105.653 26.296 105.71 26.1156 105.771 25.997C106.067 25.0998 106.424 24.1459 106.837 23.0683C107.312 22.0526 107.608 21.274 107.787 20.7945C107.843 20.7378 107.843 20.6759 107.843 20.614C107.843 20.5573 107.904 20.4954 107.904 20.4336C107.904 20.3769 107.96 20.3769 107.96 20.315C108.195 19.7169 108.317 19.1755 108.317 18.7578C108.317 18.2783 108.317 17.9174 108.2 17.6183C108.139 17.3812 107.965 17.1388 107.787 16.9584C107.608 16.7779 107.429 16.6593 107.256 16.5974C107.021 16.3603 106.96 16.1798 107.021 15.9993C107.077 15.8807 107.2 15.7003 107.317 15.5817C108.205 14.8031 108.976 14.3855 109.568 14.3236C110.16 14.3236 110.634 14.3236 111.048 14.5041C111.461 14.7413 111.818 15.1022 112.114 15.5817C112.824 16.5407 113.064 17.5565 112.768 18.7527C112.533 19.9489 111.997 21.207 111.288 22.4599C111.288 22.4599 111.226 22.5218 111.17 22.6971C110.992 22.9394 110.757 23.3571 110.344 24.0738C109.986 24.7956 109.634 25.3886 109.394 25.93C108.864 27.3066 108.45 28.5596 108.149 29.6991C109.333 29.2195 110.282 28.5596 111.109 27.6624C111.941 26.7652 112.65 25.8062 113.181 24.8523C113.712 23.8366 114.125 22.9394 114.421 22.099C114.717 21.2018 114.896 20.6037 114.952 20.2428C115.069 19.8819 115.248 19.6447 115.483 19.5261C115.718 19.4694 116.014 19.4694 116.315 19.5828C116.672 19.7014 116.968 19.8819 117.259 20.1809C117.616 20.48 117.912 20.779 118.147 21.1348C118.443 21.5524 118.616 21.9701 118.678 22.331C118.734 22.7487 118.734 23.1096 118.678 23.4705C118.616 23.8881 118.438 24.3058 118.264 24.6667C118.086 25.0276 117.851 25.502 117.437 26.1001C117.024 26.7601 116.493 27.4149 115.779 28.1368C115.069 28.8535 114.238 29.5134 113.293 30.2301C112.349 30.9468 111.221 31.4831 109.976 31.9059C111.099 33.1021 112.166 34.3602 113.176 35.4945C114.243 36.6907 115.187 37.6446 116.136 38.3664C117.141 39.0831 118.208 39.5059 119.275 39.6194C120.28 39.7998 121.168 39.7998 121.76 39.7998C121.939 39.7998 122.117 39.7998 122.291 39.9184C122.47 39.9803 122.47 40.1607 122.408 40.4546C122.291 40.8723 122.051 41.2951 121.755 41.8313C121.515 42.3675 121.163 42.9089 120.75 43.3885C120.275 43.868 119.8 44.2856 119.27 44.5847C117.708 45.3735 115.886 44.76 114.712 43.5689C113.824 42.7336 113.054 41.7179 112.227 40.5217C111.456 39.3255 110.686 38.0674 109.976 36.6907C109.205 35.3192 108.557 33.9992 107.843 32.8649C107.787 32.7463 107.725 32.6277 107.664 32.5091V32.571C107.368 34.3653 107.133 35.7987 106.955 36.9949C106.776 38.1911 106.776 39.0264 106.955 39.5678V39.6864C107.016 39.7431 107.016 39.8668 107.016 40.0473C107.016 40.2278 106.955 40.3464 106.776 40.4082C105.179 41.2435 104.051 41.6045 103.459 41.5477C102.806 41.4859 102.453 40.7692 102.331 39.4544C102.214 38.8563 102.331 37.8972 102.627 36.5824C102.928 35.3243 103.28 33.9477 103.694 32.571ZM104.822 28.74C104.051 28.3224 103.398 28.1419 102.928 28.2038C102.392 28.2657 102.214 28.5028 102.336 29.0442C102.392 29.4619 102.632 29.7609 103.046 30.0033C103.403 30.1219 103.877 30.3023 104.347 30.3642C104.464 30.0651 104.526 29.7042 104.582 29.467C104.704 29.2195 104.76 28.9824 104.822 28.74ZM123.648 32.3338C123.827 32.4524 123.827 32.6896 123.648 33.0505C123.47 33.4114 123.235 33.7724 122.995 34.1281C122.76 34.4891 122.582 34.8448 122.403 35.1439C122.286 35.4429 122.342 35.6234 122.582 35.742C122.76 35.8606 122.995 35.6853 123.291 35.3243C123.587 34.9067 123.883 34.4272 124.235 33.8291C124.593 33.1691 124.889 32.5143 125.241 31.7357C125.593 30.9571 125.833 30.2404 126.068 29.4619C126.302 28.8019 126.481 28.2038 126.481 27.6676C126.542 27.1313 126.481 26.7704 126.302 26.5899C126.006 26.3528 125.532 26.4713 124.884 26.9457C124.23 27.4252 123.582 28.0233 122.929 28.8586C122.219 29.6991 121.566 30.7148 120.974 31.7873C120.443 32.8649 120.025 33.8806 119.851 34.8964C119.545 36.1338 119.78 37.7529 119.627 39.145C119.591 39.4853 119.259 39.5523 118.815 39.4492C117.259 39.1038 116.493 38.4489 116.1 38.1963C115.36 37.7271 115.595 37.5982 115.646 37.2269C115.942 35.9688 116.299 34.7159 116.713 33.396C117.126 32.143 117.545 31.0035 117.897 29.9878C118.489 28.3121 119.025 27.054 119.494 26.1001C119.964 25.1462 120.265 24.6667 120.321 24.543C120.5 24.2439 120.796 24.1253 121.148 24.2439C121.505 24.3058 121.74 24.3625 121.857 24.4863C121.918 24.4863 122.036 24.543 122.153 24.6048C122.214 24.6616 122.393 24.7853 122.567 24.9039C122.745 25.0225 122.924 25.2597 123.159 25.6206C123.337 25.9815 123.337 26.3424 123.102 26.8168C123.041 26.8787 123.041 26.8787 123.102 26.7601C123.159 26.5796 123.159 26.6415 123.102 26.8168C123.337 26.5796 123.633 26.2806 123.99 25.9815C124.404 25.6825 124.761 25.4453 125.231 25.2648C125.644 25.0844 126.057 24.9658 126.593 24.9658C127.068 24.9658 127.542 25.0844 128.073 25.3834C128.487 25.6206 128.783 26.0434 128.905 26.6363C129.023 27.2344 129.084 27.8944 129.084 28.6111C129.023 29.3897 128.905 30.225 128.732 31.0035C128.553 31.8388 128.318 32.5607 128.14 33.1536C127.782 34.0508 127.308 34.8294 126.777 35.6079C126.246 36.3246 125.593 36.9227 124.761 37.3404C124.465 37.5827 124.113 37.7013 123.756 37.758C123.398 37.8147 123.041 37.8147 122.689 37.8147C122.276 37.758 121.918 37.5775 121.505 37.2166C121.092 36.9743 120.857 36.6185 120.734 36.2009C120.556 35.7832 120.495 35.3656 120.495 34.8861C120.556 34.4684 120.612 34.0508 120.791 33.628C120.969 33.2103 121.204 32.9113 121.5 32.5504C121.74 32.3699 122.036 32.1894 122.449 32.0709C122.817 31.911 123.23 31.9729 123.648 32.3338ZM133.473 30.4776V30.5395C133.473 30.5395 133.473 30.6014 133.417 30.6014V30.72C133.534 30.6632 133.651 30.6014 133.713 30.5395C133.83 30.4209 134.009 30.2972 134.187 30.1786C134.897 29.7609 135.545 29.5186 136.198 29.3433C136.851 29.2247 137.5 29.2247 138.153 29.4C138.923 29.6423 139.454 30.1786 139.75 30.8385C140.046 31.3748 140.225 31.9162 140.225 32.5143C140.225 33.1124 140.164 33.7105 139.985 34.2467C139.75 34.9634 139.454 35.6234 138.98 36.2834C138.505 36.8815 137.913 37.4229 137.203 37.8405C136.969 38.021 136.611 38.1396 136.198 38.2582C135.902 38.3149 135.545 38.3767 135.075 38.3767C134.662 38.3767 134.249 38.2582 133.83 38.1396C133.473 37.9591 133.182 37.66 132.942 37.361C132.707 37.0619 132.646 36.7629 132.585 36.4071C132.585 36.1081 132.646 35.7471 132.763 35.4481C132.881 35.0872 133.059 34.7881 133.294 34.5509C133.473 34.3705 133.769 34.1952 134.182 34.0147C134.539 33.8342 134.953 33.8961 135.422 34.0714C135.657 34.19 135.657 34.3705 135.54 34.6695C135.361 34.9067 135.182 35.2058 134.948 35.51C134.769 35.8709 134.596 36.1081 134.473 36.4071C134.356 36.6443 134.473 36.8248 134.713 36.8866C135.07 36.8866 135.361 36.6443 135.718 36.0513C136.076 35.4532 136.31 34.7365 136.545 33.958C136.785 33.2361 136.959 32.5194 136.959 31.8027C137.015 31.1428 136.897 30.7251 136.601 30.6065C136.249 30.4261 135.774 30.4879 135.177 30.787C134.585 31.086 133.993 31.5037 133.401 32.1018C132.988 32.4008 132.631 32.7618 132.335 33.1175C132.273 33.4166 132.217 33.6538 132.156 33.8961C132.039 34.0766 132.039 34.3137 132.039 34.5561C131.983 34.7933 131.983 35.1542 131.983 35.6337C132.039 36.1132 132.161 36.5927 132.335 37.129C132.452 37.3662 132.513 37.6085 132.569 37.7271C132.569 37.9075 132.569 38.0261 132.513 38.1447C132.452 38.2633 132.335 38.3252 132.156 38.4438C131.977 38.4438 131.86 38.5005 131.681 38.5005C131.503 38.5005 131.385 38.5005 131.207 38.5005C130.375 38.3819 129.788 38.1396 129.313 37.7219C128.956 37.3043 128.66 36.7062 128.487 35.8709C128.369 35.0923 128.548 33.958 129.079 32.4627C129.375 31.3851 129.553 30.8489 129.609 30.787C130.201 28.8741 130.732 27.3788 131.268 26.3012C131.86 25.2236 132.156 24.6255 132.212 24.5687C132.391 24.2078 132.687 24.0892 133.044 24.2078C133.401 24.2645 133.636 24.3264 133.753 24.445L134.05 24.5636C134.167 24.6255 134.284 24.7441 134.463 24.8626C134.642 24.9812 134.82 25.2236 135.055 25.6412C135.234 26.0021 135.234 26.3631 134.994 26.8374C134.815 27.1983 134.636 27.616 134.402 28.0336C134.167 28.5132 133.988 29.0494 133.748 29.5856C133.713 29.9362 133.595 30.1786 133.473 30.4776ZM147.15 24.8575C146.972 24.7389 146.793 24.6203 146.681 24.5584L146.441 24.4398C146.324 24.3213 146.028 24.2594 145.67 24.2027C145.313 24.0841 145.078 24.2027 144.9 24.5636C144.843 24.6255 144.486 25.1617 143.955 26.2393C143.425 27.3169 142.828 28.6936 142.241 30.6065C141.71 32.2204 141.353 33.5971 141.235 34.7314C141.174 35.8709 141.174 36.6443 141.235 37.1857C141.291 37.3043 141.353 37.428 141.353 37.5466C141.414 37.7271 141.531 37.8457 141.649 37.9643C142.123 38.2014 142.537 38.3819 142.95 38.5005C143.363 38.5572 143.782 38.6191 144.134 38.6191C144.491 38.5572 144.843 38.5005 145.139 38.4386C145.436 38.32 145.67 38.1963 145.91 38.1396C146.089 38.0777 146.15 37.9591 146.089 37.7786L145.91 37.361C145.435 36.701 145.201 35.8657 145.201 34.7881C145.201 33.6538 145.379 32.5143 145.731 31.3799L146.089 30.4828C146.15 30.1219 146.329 29.7661 146.446 29.4052C146.686 28.8689 146.859 28.3894 147.099 27.9099C147.278 27.4922 147.513 27.0694 147.691 26.7704C147.926 26.2909 147.926 25.9351 147.691 25.5742C147.508 25.2133 147.329 24.9761 147.15 24.8575ZM155.678 36.7577C155.796 36.9949 155.918 37.1754 156.092 37.3558C156.148 37.4744 156.209 37.6549 156.209 37.8354C156.27 37.9539 156.209 38.1344 156.03 38.1963C155.796 38.2582 155.561 38.3767 155.26 38.4386C154.964 38.5572 154.607 38.6191 154.254 38.6191C153.897 38.6191 153.601 38.6191 153.423 38.5572C153.244 38.5005 152.948 38.32 152.535 38.0777C152.356 37.9591 152.239 37.8405 152.177 37.66C152.177 37.4796 152.121 37.361 152.121 37.2424C152.06 36.8248 152.06 36.0462 152.121 35.0304C152.177 34.0147 152.417 32.8185 152.831 31.3232C152.887 31.086 153.009 30.787 153.127 30.4261C153.188 30.127 153.366 29.7094 153.54 29.3484C153.657 28.8122 153.361 28.7503 152.652 29.2298C152.239 29.5289 151.82 29.9465 151.468 30.3693C151.054 30.787 150.697 31.2665 150.34 31.8027C149.865 32.5813 149.452 33.5352 149.217 34.6128C149.156 35.0923 149.1 35.51 149.1 35.9276C149.039 36.2885 149.039 36.6443 149.039 36.8866C149.039 37.1238 148.982 37.3043 148.982 37.361C148.865 37.6033 148.748 37.7219 148.625 37.8405C148.569 37.8972 148.508 37.8972 148.508 37.8405C147.62 37.66 147.028 37.361 146.676 36.8866C146.318 36.4071 146.262 35.9276 146.436 35.51C146.676 35.0304 147.089 34.0714 147.798 32.5813C148.748 30.9674 149.34 29.8898 149.753 29.4103C150.11 28.9927 150.524 28.4564 151.054 27.915C151.585 27.3737 152.182 26.7756 152.831 26.1826C153.54 25.6412 154.249 25.105 155.02 24.6873C155.081 24.6306 155.199 24.5687 155.26 24.5687C155.377 24.5687 155.495 24.512 155.556 24.4502C155.852 24.3316 156.148 24.213 156.444 24.213C156.801 24.1563 157.097 24.2697 157.332 24.5739C157.745 25.0534 157.863 25.5897 157.745 26.131C157.628 26.6673 157.449 27.0901 157.276 27.4458C157.158 27.683 157.097 27.9821 156.98 28.2863C156.862 28.5235 156.745 28.7606 156.684 29.003C156.924 28.6421 157.276 28.2244 157.689 27.8068C158.164 27.2705 158.817 26.7291 159.465 26.131C160.118 25.5948 160.828 25.1153 161.655 24.6358C161.716 24.5739 161.772 24.5172 161.894 24.5172C162.012 24.5172 162.073 24.4553 162.19 24.3986C162.43 24.28 162.726 24.1614 163.078 24.1614C163.436 24.0995 163.727 24.2181 163.966 24.5791C164.324 24.9967 164.497 25.4762 164.38 26.0125C164.262 26.5538 164.084 26.9715 163.905 27.3891C163.788 27.6315 163.67 27.9305 163.548 28.2244C163.431 28.5235 163.313 28.8225 163.135 29.1834C163.078 29.4825 162.956 29.7815 162.839 30.1992C162.721 30.5601 162.604 30.8592 162.481 31.1531C162.185 32.3493 162.007 33.5455 161.951 34.685C161.951 35.8193 162.185 36.6598 162.66 37.3146C162.777 37.4332 162.839 37.6136 162.839 37.7941C162.9 37.9127 162.839 38.0932 162.66 38.155C162.425 38.2117 162.185 38.3355 161.889 38.3922C161.593 38.5108 161.236 38.5727 160.884 38.5727C160.471 38.5727 160.113 38.5727 159.644 38.516C159.23 38.3974 158.817 38.2169 158.398 37.9797C158.22 37.8611 158.102 37.7374 158.102 37.5621C158.046 37.3816 157.985 37.263 157.985 37.1444C157.924 36.7268 157.924 35.9482 157.985 34.9325C158.041 33.9167 158.281 32.7205 158.694 31.2253C158.812 30.9829 158.873 30.689 158.99 30.3281C159.108 30.029 159.225 29.6114 159.404 29.2505V29.1938C159.348 29.1319 159.286 29.1319 159.225 29.1938C158.868 29.4928 158.455 29.9105 158.041 30.3281C157.628 30.7457 157.271 31.2253 156.975 31.7666C156.5 32.5452 156.143 33.4991 155.908 34.5767C155.847 35.0562 155.791 35.4739 155.729 35.8296C155.74 36.2215 155.678 36.5154 155.678 36.7577ZM175.924 31.0757C176.103 31.3129 176.103 31.6738 175.863 32.0915C175.628 32.5091 175.215 33.1691 174.74 33.9477C174.209 34.7262 173.556 35.5048 172.785 36.2215C172.015 36.8815 171.071 37.4744 170.004 37.8972C168.937 38.3149 167.697 38.3767 166.334 38.1396C165.268 37.9591 164.558 37.4229 164.201 36.5824C163.844 35.8039 163.727 34.7881 163.844 33.7105C163.961 32.6329 164.257 31.4985 164.732 30.359C165.263 29.1628 165.799 28.2038 166.447 27.3685C166.804 26.8323 167.279 26.3528 167.748 25.9351C168.279 25.5175 168.754 25.1565 169.346 24.8575C169.876 24.6203 170.412 24.4398 171.004 24.4398C171.535 24.4398 172.132 24.5584 172.602 24.9194C173.132 25.2751 173.433 25.8165 173.433 26.5332C173.495 27.2499 173.316 27.9666 173.02 28.6833C172.724 29.4619 172.311 30.2404 171.78 30.8385C171.244 31.4934 170.713 31.9162 170.183 32.1533C169.652 32.3957 169.238 32.4524 168.999 32.3957C168.764 32.3338 168.585 32.2152 168.468 32.0966L168.412 32.0348C168.294 31.7357 168.233 31.4367 168.412 31.1376C168.529 30.8385 168.708 30.5395 169.004 30.2404C169.121 30.1219 169.3 29.9414 169.478 29.5805C169.713 29.2814 169.836 28.9824 169.953 28.6266C170.07 28.2708 170.188 27.9666 170.188 27.6676C170.249 27.3066 170.188 27.0694 170.132 26.889C170.014 26.7085 169.836 26.7704 169.54 26.889C169.305 27.0694 169.009 27.3633 168.769 27.7243C168.473 28.1419 168.238 28.6214 167.998 29.1577C167.763 29.6939 167.585 30.292 167.467 30.8334C167.233 31.9677 167.171 32.8082 167.411 33.2877C167.59 33.7672 167.942 34.0663 168.534 34.1848C169.305 34.3653 170.014 34.3653 170.724 34.1281C171.377 33.9477 172.025 33.7105 172.617 33.3496C173.209 32.9886 173.745 32.6329 174.158 32.2719C174.633 31.8543 174.99 31.4934 175.286 31.1943C175.342 31.1324 175.465 31.0757 175.582 31.0139C175.689 31.019 175.807 31.019 175.924 31.0757ZM175.628 29.4619C175.863 28.3842 176.281 27.3685 176.695 26.3528C177.169 25.2751 177.465 24.7389 177.527 24.6203C177.644 24.3213 177.884 24.2027 178.119 24.3213C178.476 24.378 178.649 24.4398 178.767 24.5584L179.007 24.677C179.124 24.7337 179.241 24.8575 179.364 24.9761C179.481 25.0947 179.66 25.337 179.838 25.6928C180.073 26.0537 180.073 26.4095 179.838 26.889C179.66 27.188 179.481 27.6057 179.308 28.0233C179.129 28.5028 179.012 28.9205 178.894 29.2195C178.66 29.6991 178.42 30.2972 178.185 30.952C178.364 30.7715 178.716 30.292 179.19 29.5753C179.665 28.9153 180.196 28.2605 180.849 27.6005C181.497 26.8838 182.15 26.2239 182.921 25.6876C183.63 25.0895 184.401 24.7905 185.11 24.6719C185.406 24.6719 185.646 24.6719 185.881 24.6719C186.06 24.7286 186.294 24.7905 186.59 24.8523C186.83 24.909 187.065 25.0328 187.244 25.2133C187.54 25.4504 187.718 25.7495 187.774 26.1723C187.831 26.5899 187.774 26.9509 187.718 27.3685C187.601 27.7861 187.478 28.1471 187.305 28.508C187.126 28.9256 186.953 29.168 186.835 29.3484C186.596 29.7094 186.3 29.9465 185.947 30.127C185.595 30.3075 185.238 30.3693 184.825 30.4261C184.467 30.4261 184.171 30.4261 183.875 30.4261C183.579 30.3693 183.401 30.3693 183.283 30.3693C183.105 30.3693 182.987 30.3075 182.987 30.1889C182.931 30.0703 182.931 29.9465 182.987 29.8898C183.222 29.2298 183.518 28.5132 183.937 27.6779C183.937 27.6212 183.993 27.4974 183.993 27.3788C183.993 27.1416 183.814 27.1416 183.462 27.2602L183.11 27.4974L183.049 27.5541C182.931 27.616 182.814 27.6727 182.696 27.7965C182.64 27.915 182.462 28.0336 182.339 28.1574C182.222 28.276 182.104 28.3946 181.982 28.5183C181.926 28.6369 181.803 28.7555 181.686 28.8792C181.451 29.2402 181.216 29.5392 181.155 29.895C181.038 30.194 180.977 30.3745 180.977 30.4931V30.6117C180.859 31.1479 180.859 31.6893 181.038 32.1069C181.155 32.5246 181.395 32.8855 181.686 33.1846C181.982 33.4217 182.278 33.6641 182.635 33.9013C182.987 34.0817 183.345 34.2003 183.579 34.2003C184.171 34.3189 184.763 34.3189 185.355 34.2003C185.59 34.2003 185.83 34.3189 186.065 34.4375C186.3 34.618 186.3 34.9737 186.065 35.5151C185.713 36.1132 185.238 36.7732 184.646 37.3094C184.054 37.8457 183.345 38.1447 182.574 38.2685H182.395C182.155 38.2685 181.921 38.2685 181.742 38.2685C181.502 38.2066 181.329 38.1499 181.15 38.088L180.675 37.9075C179.849 37.4899 179.374 36.7732 179.195 35.6956C179.078 34.618 179.134 33.4836 179.43 32.2874C179.073 32.9474 178.777 33.7208 178.486 34.5612C178.246 35.4017 178.011 36.3556 177.833 37.3146C177.777 37.7322 177.715 38.0932 177.593 38.2736C177.537 38.5108 177.358 38.5727 177.123 38.5108C177.062 38.5108 176.883 38.4541 176.649 38.3922C176.47 38.3355 176.235 38.2117 175.995 38.0932C175.761 37.9127 175.465 37.7322 175.225 37.4383C174.985 37.1393 174.811 36.7784 174.633 36.2988C174.515 35.9379 174.454 35.4636 174.454 34.984C174.454 34.5097 174.454 33.9683 174.572 33.4269C174.633 32.9525 174.75 32.4112 174.868 31.9316C174.985 31.4521 175.102 31.0345 175.225 30.7354C175.276 30.5395 175.393 30.1786 175.628 29.4619ZM200.258 25.7495C200.375 26.1104 200.375 26.4662 200.202 26.8271C200.023 27.1262 199.844 27.5438 199.61 27.9666C199.375 28.4461 199.196 28.9205 199.018 29.4619C198.839 29.7609 198.722 30.1786 198.604 30.4776C198.487 30.8385 198.369 31.1376 198.308 31.4367C197.956 32.5761 197.777 33.7105 197.777 34.7881C197.777 35.9276 198.012 36.7629 198.487 37.4229C198.543 37.5415 198.604 37.66 198.665 37.8405C198.722 38.021 198.665 38.1396 198.487 38.2014C198.247 38.2633 198.012 38.3819 197.66 38.4438C197.364 38.5624 197.007 38.6242 196.655 38.6242C196.302 38.6242 195.884 38.6242 195.471 38.5624C195.057 38.4438 194.583 38.2633 194.169 38.0261C193.934 37.7889 193.812 37.5466 193.812 37.2476C193.756 36.9485 193.756 36.5257 193.756 36.0513C193.756 35.5151 193.812 34.8551 193.934 34.0766C193.521 34.7365 193.164 35.3914 192.75 35.9328C192.337 36.5309 191.919 37.0104 191.51 37.3094C191.214 37.6085 190.918 37.7271 190.678 37.7889C190.5 37.9075 190.321 37.9694 190.148 37.9694C188.846 38.088 187.897 37.6085 187.366 36.4741C186.892 35.3398 186.953 33.7208 187.545 31.5088C187.545 31.2717 187.601 31.0912 187.723 30.854C187.723 30.854 187.723 30.7921 187.78 30.7921C187.78 30.7354 187.78 30.6736 187.78 30.6736C188.372 28.7555 188.964 27.384 189.494 26.3063C190.025 25.2287 190.382 24.6925 190.444 24.5739C190.622 24.2749 190.857 24.1563 191.214 24.2749C191.571 24.3367 191.806 24.3934 191.924 24.5172C192.163 24.5739 192.398 24.6976 192.633 24.9348C192.812 25.0534 192.99 25.2906 193.169 25.6515C193.404 26.0125 193.404 26.3734 193.169 26.8477C192.99 27.1468 192.812 27.5644 192.577 27.9872C192.398 28.4667 192.163 28.9411 191.985 29.4825C191.924 29.7197 191.806 29.9569 191.745 30.0806C191.689 30.2611 191.628 30.4415 191.566 30.6787L191.51 30.7354V30.7921C191.454 30.9726 191.393 31.2098 191.332 31.6274C191.214 31.9884 191.153 32.3441 191.153 32.705C191.153 33.066 191.153 33.365 191.209 33.6641C191.27 33.9631 191.449 34.1436 191.684 34.1436C191.74 34.1436 191.801 34.1436 191.862 34.0817C192.097 33.9631 192.393 33.7208 192.812 33.2413C193.169 32.7669 193.521 32.2255 193.934 31.6274C194.292 30.9674 194.705 30.3126 195.062 29.5908C195.42 28.9308 195.772 28.276 196.068 27.7397C196.246 27.3221 196.537 26.8426 196.894 26.3012C197.252 25.765 197.609 25.2236 198.022 24.8059H198.078C198.14 24.7441 198.318 24.6255 198.553 24.5069C198.67 24.445 198.732 24.445 198.91 24.5069C199.028 24.5069 199.15 24.5636 199.263 24.6255C199.38 24.6822 199.559 24.8059 199.737 24.9864C199.737 25.0431 199.737 25.0431 199.793 25.0431C199.793 25.0431 199.855 25.0998 199.911 25.0998L200.207 25.6361V25.6979C200.258 25.6928 200.258 25.6928 200.258 25.7495Z" fill="#9C3E75"/>
<path fill-rule="evenodd" clip-rule="evenodd" d="M211.919 25.8114C212.037 26.1723 212.037 26.5332 211.863 26.889C211.684 27.188 211.506 27.6057 211.271 28.0233C211.031 28.5028 210.858 28.9824 210.679 29.5186C210.5 29.8176 210.383 30.1786 210.266 30.4725C210.148 30.8334 210.026 31.1324 209.97 31.4315C209.612 32.571 209.439 33.7672 209.439 34.8397C209.439 35.974 209.674 36.8145 210.148 37.4693C210.204 37.5879 210.266 37.7065 210.327 37.8869C210.383 38.0674 210.327 38.1293 210.148 38.2478C209.914 38.3046 209.674 38.3664 209.322 38.485C209.026 38.6036 208.668 38.6655 208.316 38.6655C207.964 38.6655 207.546 38.6655 207.132 38.6088C206.719 38.4902 206.244 38.3097 205.831 38.0674C205.591 37.8302 205.479 37.593 205.479 37.2888C205.417 36.9898 205.417 36.5721 205.417 36.0926C205.417 35.5564 205.479 34.8964 205.596 34.1178C205.126 34.7726 204.769 35.4326 204.356 35.9689C203.942 36.567 203.529 37.0465 203.111 37.3455C202.815 37.6446 202.519 37.7632 202.284 37.825C202.105 37.9436 201.927 38.0055 201.753 38.0055C200.452 38.1241 199.502 37.5879 198.972 36.5102C198.558 35.3759 198.614 33.7621 199.15 31.4882C199.15 31.251 199.206 31.0706 199.329 30.8334C199.329 30.8334 199.329 30.7715 199.39 30.7715C199.39 30.7148 199.39 30.6529 199.39 30.6529C199.982 28.7967 200.574 27.4201 201.105 26.3476C201.636 25.27 201.993 24.7337 202.054 24.6152C202.233 24.3161 202.467 24.1975 202.825 24.3161C203.182 24.3728 203.417 24.4347 203.534 24.5533C203.774 24.6152 204.009 24.7337 204.244 24.9709C204.422 25.0895 204.601 25.3319 204.779 25.6876C205.014 26.0485 205.014 26.4043 204.779 26.8838C204.601 27.1829 204.422 27.6005 204.244 28.0182C204.009 28.4977 203.774 28.9772 203.595 29.5134C203.534 29.7506 203.417 29.9311 203.356 30.0497C203.299 30.2301 203.238 30.4106 203.177 30.6478L203.116 30.7045V30.7612C203.054 30.9417 202.998 31.1789 202.937 31.5398C202.82 31.9574 202.758 32.3183 202.758 32.6741C202.758 33.035 202.758 33.3341 202.815 33.6899C202.871 33.9889 203.049 34.1694 203.289 34.1694C203.407 34.1694 203.407 34.1694 203.468 34.1127C203.703 33.9941 203.999 33.7517 204.412 33.2155C204.769 32.7411 205.126 32.1998 205.596 31.5398C205.953 30.9417 206.367 30.2817 206.724 29.6269C207.076 28.9669 207.433 28.3121 207.729 27.7707C207.908 27.353 208.204 26.8735 208.561 26.3373C208.913 25.7959 209.271 25.2597 209.745 24.842C209.801 24.7802 209.98 24.6616 210.276 24.543C210.332 24.4863 210.393 24.4863 210.572 24.543C210.689 24.543 210.812 24.6048 210.929 24.6616C211.108 24.7183 211.225 24.842 211.399 25.0225C211.399 25.0792 211.399 25.0792 211.46 25.0792C211.46 25.0792 211.516 25.0792 211.577 25.1411L211.873 25.6773V25.734C211.919 25.7495 211.919 25.7495 211.919 25.8114ZM211.332 22.4599C211.746 22.6971 211.69 22.9394 211.215 23.058C210.684 23.1766 210.031 23.2952 209.26 23.1766C208.434 23.1199 207.602 22.9394 206.775 22.5785C205.887 22.2795 205.234 21.7999 204.943 21.14C204.703 20.6037 204.585 20.1242 204.647 19.8252C204.647 19.5261 204.764 19.2271 204.881 18.9899C205.06 18.7527 205.239 18.5722 205.652 18.3299C205.887 18.2113 206.122 18.0927 206.305 18.0927C206.484 18.0927 206.601 18.0927 206.719 18.1494C206.775 18.0927 206.897 18.0927 206.954 18.268C207.25 19.2838 207.663 20.0623 208.138 20.5986C208.612 21.1348 209.026 21.5576 209.5 21.7948C209.914 22.0371 210.327 22.1506 210.684 22.2124C211.031 22.2846 211.21 22.4032 211.332 22.4599Z" fill="#9C3E75"/>
<path fill-rule="evenodd" clip-rule="evenodd" d="M251.058 65.5905V59.0681H249.757V57.6914H254.258V59.0681H252.896V65.5905H251.058ZM255.024 65.5905L255.08 57.6966H256.499L257.979 61.7028L259.52 57.6966H260.883L260.939 65.5905H259.459V61.2852L258.275 64.4562H257.744L256.56 61.2852V65.5905H255.024Z" fill="#9C3E75"/>
<path d="M251.058 65.5905V59.0681H249.757V57.6914H254.258V59.0681H252.896V65.5905H251.058ZM255.024 65.5905L255.08 57.6966H256.499L257.979 61.7028L259.52 57.6966H260.883L260.939 65.5905H259.459V61.2852L258.275 64.4562H257.744L256.56 61.2852V65.5905H255.024Z" stroke="#9C3E75" stroke-width="0.2268" stroke-miterlimit="3.8637"/>
<path fill-rule="evenodd" clip-rule="evenodd" d="M112.87 50.8751V73.005H108.726V54.5823H100.142V73.005H95.9414V50.8751H112.87ZM115.182 73.005L125.067 49.9728L135.075 73.005H130.691L129.094 68.9369H121.219L119.678 73.005H115.182ZM122.817 65.2915H127.553L125.067 59.3104L122.817 65.2915ZM144.726 50.8751C145.139 50.8751 145.614 50.9318 146.028 50.9318C146.502 50.9885 146.972 51.1123 147.39 51.2309C147.865 51.3495 148.334 51.5299 148.753 51.7671C149.166 52.0043 149.585 52.3033 149.993 52.721C150.406 53.0819 150.764 53.4995 150.998 53.9791C151.233 54.4534 151.473 54.8762 151.59 55.3557C151.708 55.8301 151.83 56.2529 151.83 56.7324C151.886 57.2068 151.886 57.6296 151.886 57.9853C151.886 58.5834 151.83 59.1197 151.708 59.6611C151.59 60.1973 151.473 60.6768 151.294 61.0945C151.116 61.5121 150.937 61.9297 150.764 62.2907C150.524 62.6516 150.35 62.8888 150.172 63.1878C149.814 63.5436 149.345 63.7859 148.931 64.0231C148.457 64.2603 148.043 64.4408 147.569 64.6212C147.094 64.7398 146.681 64.8636 146.267 64.8636C145.854 64.9203 145.436 64.9821 145.083 64.9821H141.889V72.9998H137.683V50.8751H144.726ZM141.883 61.4605H143.894C144.073 61.4605 144.308 61.4605 144.548 61.4038C144.787 61.4038 145.022 61.3419 145.257 61.2852C145.553 61.2234 145.788 61.1666 146.028 61.048C146.262 60.9295 146.502 60.749 146.737 60.5067C146.972 60.2076 147.212 59.8518 147.39 59.429C147.569 59.0114 147.625 58.5319 147.625 57.9338C147.625 57.4543 147.569 56.918 147.39 56.4385C147.212 56.0209 146.977 55.6599 146.681 55.3609C146.502 55.1804 146.324 55 146.089 54.9432C145.854 54.8247 145.614 54.7061 145.379 54.6442C145.083 54.5875 144.849 54.5256 144.609 54.5256C144.313 54.5256 144.073 54.5256 143.838 54.5256H141.883V61.4605ZM152.836 73.005L162.721 49.9728L172.724 73.005H168.34L166.682 68.9369H158.873L157.332 73.005H152.836ZM160.471 65.2915H165.207L162.721 59.3104L160.471 65.2915ZM191.73 50.8751V69.2978H194.098V78.0889H190.428V73.005H176.929V78.0889H173.26V69.2359C173.556 69.1792 173.852 69.0554 174.087 68.9369C174.322 68.8183 174.561 68.6997 174.796 68.5759C174.975 68.4573 175.092 68.3388 175.327 68.215C175.444 68.0964 175.506 68.0345 175.567 67.9778C175.98 67.4983 176.337 66.9621 176.572 66.3021C176.868 65.704 177.042 65.044 177.164 64.3273C177.282 63.6055 177.343 62.8888 177.399 62.1721C177.399 61.5121 177.46 60.7954 177.46 60.1973V50.8648H191.73V50.8751ZM181.431 60.0271C181.431 60.3881 181.431 60.8057 181.375 61.2234C181.375 61.6977 181.313 62.1772 181.313 62.6567C181.257 63.1363 181.196 63.6106 181.135 64.0901C181.079 64.5078 181.017 64.9254 180.956 65.2863C180.839 65.7659 180.599 66.3021 180.247 67.0188C179.895 67.6788 179.359 68.4522 178.649 69.2926H187.591V54.5772H181.431V60.0271ZM206.714 50.3956C209.97 50.3956 212.573 51.4732 214.588 53.5666C215.063 54.1028 215.476 54.6442 215.89 55.2423C216.303 55.8404 216.599 56.4952 216.895 57.2789C217.191 57.9338 217.365 58.7123 217.543 59.4909C217.722 60.2695 217.783 61.1048 217.783 61.9452C217.783 62.7238 217.722 63.4405 217.605 64.1572C217.426 64.9357 217.247 65.6524 217.013 66.3073C216.717 67.024 216.421 67.7406 216.007 68.4006C215.594 69.0606 215.119 69.6587 214.588 70.2568C213.639 71.2726 212.578 72.0511 211.276 72.6492C209.975 73.2473 208.434 73.5464 206.719 73.5464C205.77 73.5464 204.882 73.4278 204.055 73.2473C203.284 73.0669 202.513 72.8297 201.865 72.5306C201.212 72.1697 200.62 71.8707 200.089 71.453C199.559 71.0354 199.145 70.6177 198.788 70.2568C197.783 69.2411 197.012 68.0448 196.476 66.6063C195.945 65.2296 195.649 63.6777 195.649 62.0586C195.649 61.2801 195.767 60.5634 195.945 59.7848C196.063 59.0062 196.302 58.2277 196.598 57.511C196.894 56.7324 197.252 56.0157 197.604 55.3609C198.017 54.7009 198.375 54.1028 198.788 53.5666C199.145 53.2056 199.615 52.8499 200.089 52.4889C200.62 52.128 201.156 51.7723 201.865 51.4732C202.513 51.1123 203.223 50.8751 204.055 50.6946C204.82 50.4575 205.703 50.3956 206.714 50.3956ZM206.652 54.5256C205.703 54.5256 204.815 54.7061 203.988 55.0618C203.162 55.4228 202.452 55.959 201.86 56.619C201.62 56.8561 201.386 57.2171 201.146 57.5728C200.911 57.8719 200.732 58.2947 200.554 58.7123C200.375 59.1919 200.196 59.6714 200.079 60.2076C199.962 60.7438 199.962 61.3419 199.962 62.0019C199.962 63.0795 200.14 64.0386 200.436 64.9925C200.788 65.8896 201.324 66.6682 201.978 67.3282C202.631 68.0449 203.401 68.5811 204.167 68.8853C204.999 69.1844 205.764 69.3648 206.652 69.3648C207.122 69.3648 207.597 69.3029 208.071 69.1843C208.546 69.0658 209.015 68.942 209.434 68.7048C209.791 68.5244 210.204 68.3439 210.501 68.1067C210.858 67.8077 211.154 67.5705 211.45 67.3282C211.628 67.0858 211.863 66.7919 212.098 66.431C212.338 66.1319 212.573 65.7143 212.751 65.2915C212.93 64.812 213.108 64.3376 213.226 63.7962C213.343 63.1981 213.404 62.6 213.404 61.9452C213.404 61.409 213.348 60.8057 213.226 60.3314C213.108 59.7951 212.991 59.3156 212.812 58.8361C212.634 58.3566 212.399 57.9389 212.159 57.578C211.919 57.2171 211.685 56.8613 211.45 56.5623C211.154 56.3199 210.858 56.0209 210.501 55.7837C210.143 55.5465 209.791 55.3042 209.378 55.1237C208.964 54.9432 208.49 54.8247 208.076 54.7061C207.602 54.5823 207.127 54.5256 206.652 54.5256ZM225.418 61.0429L232.936 50.8751H238.029L229.797 61.3419C229.976 61.5843 230.21 61.8782 230.389 62.1205C230.624 62.4196 230.859 62.7186 231.037 63.0177C231.277 63.2549 231.512 63.5539 231.69 63.853C231.93 64.0901 232.104 64.3892 232.344 64.6315L233.17 65.771L234.115 66.9054L238.672 73.0102H233.283L225.408 62.2443V73.0102H221.146V50.8751H225.408V61.0429H225.418ZM239.749 61.5224C239.749 58.5938 240.816 55.9023 242.949 53.6284C245.077 51.3546 247.567 50.2203 250.466 50.2203C251.12 50.2203 251.768 50.277 252.421 50.4007C253.135 50.5812 253.784 50.7617 254.493 51.0607V55.4846C253.901 55.0103 253.309 54.7061 252.656 54.5308C252.002 54.3503 251.354 54.2317 250.701 54.2317C248.869 54.2317 247.328 54.8917 245.965 56.2065C244.602 57.5832 243.893 59.3156 243.893 61.4141C243.893 63.8684 244.602 65.8381 246.026 67.3952C247.328 68.8337 248.869 69.5504 250.762 69.4886C252.064 69.4886 253.309 69.1276 254.493 68.2923V72.8967C253.779 73.1958 253.069 73.3762 252.36 73.4948C251.65 73.6753 250.941 73.732 250.232 73.732C247.333 73.732 244.842 72.5358 242.77 70.2053C240.754 67.8592 239.749 64.9873 239.749 61.5224Z" fill="#9C3E75"/>
</svg>
