<svg width="10" height="22" viewBox="0 0 10 22" fill="none" xmlns="http://www.w3.org/2000/svg">
<path d="M8.30677 3.01426L6.39478 1.7396C5.72299 1.29174 4.84701 1.29936 4.28913 1.88302C3.02302 3.20762 0.999968 6.09194 0.999968 10.9993C0.999968 15.9066 3.02294 18.7915 4.28905 20.1166C4.84695 20.7004 5.72312 20.7082 6.39505 20.2602L8.30677 18.9857C9.05391 18.4877 9.37749 17.5527 9.09808 16.6993L8.73542 15.5917C8.46633 14.7699 7.6995 14.2141 6.83471 14.2141L6.24663 14.2141C5.63907 14.2141 5.05975 13.9326 4.83941 13.3664C4.6311 12.8311 4.4283 12.0423 4.4283 11C4.4283 9.95771 4.6311 9.16892 4.83941 8.63364C5.05975 8.06743 5.63907 7.78594 6.24663 7.78594L6.83472 7.78594C7.6995 7.78594 8.46633 7.23013 8.73542 6.40828L9.09807 5.3007C9.37749 4.44733 9.05391 3.51235 8.30677 3.01426Z" stroke="#230E1A" stroke-width="1.5" stroke-linecap="round" stroke-linejoin="round"/>
</svg>
